<svg width="15" height="15" viewBox="0 0 15 15" fill="none" xmlns="http://www.w3.org/2000/svg">
<path d="M13.1703 14.5311L0.657858 1.85382C0.149605 1.33888 0.0437156 0.611724 0.421254 0.229212C0.798793 -0.1533 1.51651 -0.0460366 2.02476 0.468912L14.5372 13.1462C15.0454 13.6611 15.1513 14.3883 14.7738 14.7708C14.3962 15.1533 13.6785 15.046 13.1703 14.5311Z" fill="#EE5C5D"/>
<path d="M0.4628 13.1462L12.9752 0.468913C13.4835 -0.046035 14.2012 -0.15332 14.5787 0.229192C14.9563 0.611704 14.8504 1.33888 14.3422 1.85383L1.82971 14.5311C1.32148 15.046 0.603782 15.1533 0.226223 14.7708C-0.151336 14.3882 -0.045425 13.6611 0.4628 13.1462Z" fill="#EE5C5D"/>
</svg>
