<svg width="18" height="18" viewBox="0 0 18 18" fill="none" xmlns="http://www.w3.org/2000/svg">
<g clip-path="url(#clip0)">
<path d="M16.8462 3.23074H1.15386C0.516445 3.23074 0 2.7143 0 2.07691C0 1.43953 0.516445 0.92305 1.15386 0.92305H16.8462C17.4836 0.92305 18 1.4395 18 2.07691C18 2.71433 17.4836 3.23074 16.8462 3.23074Z" fill="#EE5C5D"/>
<path d="M10.3846 10.1538H1.15386C0.516445 10.1538 0 9.63737 0 8.99999C0 8.36261 0.516445 7.84613 1.15386 7.84613H10.3846C11.022 7.84613 11.5385 8.36257 11.5385 8.99999C11.5385 9.6374 11.022 10.1538 10.3846 10.1538Z" fill="#EE5C5D"/>
<path d="M16.8462 10.1539H15.0001C14.3627 10.1539 13.8462 9.63741 13.8462 8.99999C13.8462 8.36258 14.3626 7.84613 15.0001 7.84613H16.8462C17.4836 7.84613 18 8.36258 18 8.99999C18 9.63741 17.4836 10.1539 16.8462 10.1539Z" fill="#ED7878"/>
<path d="M16.8462 17.0769H1.15386C0.516445 17.0769 0 16.5605 0 15.9231C0 15.2857 0.516445 14.7692 1.15386 14.7692H16.8462C17.4836 14.7692 18 15.2857 18 15.9231C18 16.5605 17.4836 17.0769 16.8462 17.0769Z" fill="#EE5C5D"/>
</g>
<defs>
<clipPath id="clip0">
<rect width="18" height="18" fill="white"/>
</clipPath>
</defs>
</svg>
