<svg width="400" height="78" fill="none" xmlns="http://www.w3.org/2000/svg"><path d="M7.117 64.714H2.682v8.898H.687V54.21h1.995v8.703h4.435l6.57-8.703h2.217l-7.207 9.424 7.623 9.98h-2.356l-6.847-8.899zm20.838 9.064c-1.921 0-3.668-.425-5.238-1.275-1.553-.868-2.772-2.05-3.66-3.548-.868-1.497-1.302-3.178-1.302-5.045 0-1.866.434-3.548 1.303-5.044a9.44 9.44 0 013.659-3.52c1.57-.87 3.317-1.304 5.238-1.304 1.922 0 3.65.425 5.184 1.275a9.381 9.381 0 013.659 3.548c.887 1.497 1.33 3.179 1.33 5.045 0 1.867-.443 3.558-1.33 5.073a9.44 9.44 0 01-3.66 3.52c-1.533.85-3.26 1.275-5.183 1.275zm0-1.83c1.534 0 2.92-.341 4.158-1.025a7.65 7.65 0 002.91-2.883c.703-1.238 1.054-2.614 1.054-4.13 0-1.515-.351-2.882-1.053-4.102a7.4 7.4 0 00-2.91-2.883c-1.239-.702-2.625-1.053-4.159-1.053-1.533 0-2.929.35-4.185 1.053a7.592 7.592 0 00-2.938 2.883c-.703 1.22-1.054 2.587-1.054 4.102 0 1.516.351 2.892 1.054 4.13a7.847 7.847 0 002.938 2.883c1.256.684 2.652 1.026 4.185 1.026zm35.22-17.739v19.403h-1.968V58.09l-7.623 13.056h-.97L44.99 58.173v15.44h-1.968V54.208h1.691l8.427 14.386 8.343-14.386h1.69zm27.3 9.674c0 2.568-.914 4.592-2.744 6.07-1.811 1.46-4.352 2.236-7.623 2.328v1.996h-1.912v-1.996c-3.271-.11-5.821-.896-7.65-2.356-1.812-1.46-2.717-3.474-2.717-6.042 0-2.569.905-4.583 2.716-6.043 1.83-1.46 4.38-2.245 7.65-2.356v-1.94h1.913v1.94c3.253.11 5.794.905 7.623 2.384 1.83 1.46 2.744 3.465 2.744 6.015zm-10.367 6.763c2.68-.11 4.75-.748 6.21-1.912 1.46-1.165 2.19-2.782 2.19-4.851 0-2.07-.74-3.687-2.218-4.851-1.46-1.164-3.52-1.793-6.182-1.885v13.5zm-10.311-6.763c0 2.07.73 3.686 2.19 4.85 1.478 1.146 3.548 1.784 6.209 1.913v-13.5c-2.698.112-4.777.75-6.237 1.913-1.442 1.146-2.162 2.754-2.162 4.824zm33.845 9.895c-1.922 0-3.669-.425-5.24-1.275-1.552-.868-2.771-2.05-3.658-3.548-.869-1.497-1.303-3.178-1.303-5.045 0-1.866.434-3.548 1.303-5.044a9.441 9.441 0 013.659-3.52c1.57-.87 3.317-1.304 5.239-1.304 1.921 0 3.649.425 5.183 1.275a9.383 9.383 0 013.659 3.548c.887 1.497 1.33 3.179 1.33 5.045 0 1.867-.443 3.558-1.33 5.073a9.443 9.443 0 01-3.659 3.52c-1.534.85-3.262 1.275-5.183 1.275zm0-1.83c1.533 0 2.919-.341 4.157-1.025a7.644 7.644 0 002.911-2.883c.702-1.238 1.053-2.614 1.053-4.13 0-1.515-.351-2.882-1.053-4.102a7.394 7.394 0 00-2.911-2.883c-1.238-.702-2.624-1.053-4.157-1.053-1.534 0-2.929.35-4.186 1.053a7.592 7.592 0 00-2.938 2.883c-.702 1.22-1.054 2.587-1.054 4.102 0 1.516.352 2.892 1.054 4.13a7.847 7.847 0 002.938 2.883c1.257.684 2.652 1.026 4.186 1.026zm22.33-17.739c2.476 0 4.416.591 5.821 1.774 1.404 1.182 2.106 2.809 2.106 4.878 0 2.07-.702 3.696-2.106 4.879-1.405 1.164-3.345 1.746-5.821 1.746h-5.211v6.126h-2.052V54.21h7.263zm-.056 11.475c1.922 0 3.391-.415 4.408-1.247 1.016-.85 1.524-2.042 1.524-3.576 0-1.57-.508-2.772-1.524-3.603-1.017-.85-2.486-1.275-4.408-1.275h-5.155v9.701h5.155zm24.248-9.701h-6.819v17.63h-2.024v-17.63h-6.819v-1.774h15.662v1.774zm22.358 7.622c1.349.278 2.375.823 3.077 1.636.702.794 1.053 1.839 1.053 3.132 0 1.682-.6 2.975-1.801 3.88-1.183.906-2.929 1.36-5.239 1.36h-8.593V54.208h8.066c2.07 0 3.687.425 4.851 1.275 1.164.85 1.746 2.079 1.746 3.686 0 1.09-.277 2.015-.831 2.772-.555.74-1.331 1.294-2.329 1.663zm-9.48-.61h5.932c1.497 0 2.643-.304 3.437-.914.813-.61 1.22-1.497 1.22-2.661s-.407-2.051-1.22-2.661c-.794-.61-1.94-.915-3.437-.915h-5.932v7.152zm6.57 8.982c3.345 0 5.017-1.248 5.017-3.742 0-2.44-1.672-3.66-5.017-3.66h-6.57v7.402h6.57zm25.855-7.263h-4.436v8.898h-1.995V54.21h1.995v8.703h4.436l6.569-8.703h2.218l-7.207 9.424 7.622 9.98h-2.356l-6.846-8.899zm24.557 3.715h-10.811l-2.328 5.183h-2.135l8.87-19.403h2.024l8.87 19.403h-2.162l-2.328-5.183zm-.749-1.664l-4.657-10.422-4.657 10.422h9.314zm23.836-2.051h-4.019v8.898h-1.996v-8.898h-4.047l-5.932 8.898h-2.384l6.653-10.006-6.154-9.397h2.218l5.571 8.703h4.075V54.21h1.996v8.703h4.019l5.599-8.703h2.218l-6.154 9.396 6.653 10.007h-2.384l-5.932-8.898zm29.77 7.124v6.126h-1.912v-4.352h-16.937l-.027 4.352h-1.913l.028-6.126h.97c1.275-.074 2.162-1.081 2.661-3.021.499-1.96.804-4.731.915-8.316l.222-6.292h13.083v17.629h2.91zm-14.386-11.143c-.092 2.957-.323 5.396-.693 7.318-.351 1.903-.951 3.178-1.801 3.825h11.946V55.983h-9.285l-.167 4.712zm26.692.444c2.292 0 4.038.517 5.239 1.552 1.22 1.035 1.83 2.55 1.83 4.546 0 2.088-.647 3.677-1.941 4.767-1.275 1.072-3.123 1.608-5.544 1.608h-7.705V54.21h2.023v6.93h6.098zm-.471 10.838c1.793 0 3.151-.398 4.075-1.192.942-.795 1.413-1.968 1.413-3.52 0-2.976-1.829-4.463-5.488-4.463h-5.627v9.175h5.627zm10.894-17.768h2.023v19.403h-2.023V54.21zm8.552 0h2.024v16.077l12.418-16.077h1.857v19.403h-2.024v-16.05l-12.418 16.05h-1.857V54.21zm8.094-1.414c-1.386 0-2.485-.314-3.299-.942-.794-.629-1.201-1.507-1.219-2.634h1.524c.019.74.296 1.322.832 1.746.536.426 1.257.638 2.162.638.887 0 1.599-.212 2.134-.638.555-.425.841-1.007.86-1.746h1.524c-.018 1.127-.434 2.005-1.247 2.634-.813.628-1.903.942-3.271.942zm39.831 19.043v6.126h-1.913v-4.352h-16.936l-.028 4.352h-1.913l.028-6.126h.97c1.275-.074 2.162-1.081 2.661-3.021.499-1.96.804-4.731.915-8.316l.222-6.292h13.083v17.629h2.911zM337.7 60.695c-.092 2.957-.323 5.396-.693 7.318-.351 1.903-.951 3.178-1.801 3.825h11.947V55.983h-9.286l-.167 4.712zm27.08 13.083c-1.921 0-3.668-.425-5.238-1.275-1.553-.868-2.772-2.05-3.659-3.548-.869-1.497-1.303-3.178-1.303-5.045 0-1.866.434-3.548 1.303-5.044a9.436 9.436 0 013.659-3.52c1.57-.87 3.317-1.304 5.238-1.304 1.922 0 3.65.425 5.184 1.275a9.383 9.383 0 013.659 3.548c.887 1.497 1.33 3.179 1.33 5.045 0 1.867-.443 3.558-1.33 5.073a9.443 9.443 0 01-3.659 3.52c-1.534.85-3.262 1.275-5.184 1.275zm0-1.83c1.534 0 2.92-.341 4.158-1.025a7.65 7.65 0 002.911-2.883c.702-1.238 1.053-2.614 1.053-4.13 0-1.515-.351-2.882-1.053-4.102a7.4 7.4 0 00-2.911-2.883c-1.238-.702-2.624-1.053-4.158-1.053-1.533 0-2.928.35-4.185 1.053a7.587 7.587 0 00-2.938 2.883c-.703 1.22-1.054 2.587-1.054 4.102 0 1.516.351 2.892 1.054 4.13a7.85 7.85 0 002.938 2.883c1.257.684 2.652 1.026 4.185 1.026zM400 54.209v19.403h-1.968V58.09l-7.623 13.056h-.97l-7.623-12.972v15.44h-1.968V54.208h1.691l8.427 14.386 8.343-14.386H400z" fill="#ED7878"/><path d="M26.671 30.554l-.085-13.613-6.487 10.925h-4.438L9.175 17.41v13.143H0V.683h8.279l9.73 15.917L27.481.683h8.278l.086 29.871H26.67zm39.255-7.596v7.596H41.09V.683h24.28v7.596H50.99v3.499h12.63v7.254H50.99v3.926h14.935zM70.011.683h25.903v7.596H79.912v3.456h7.126c3.642 0 6.43.783 8.364 2.347 1.963 1.536 2.945 3.77 2.945 6.7 0 3.044-1.11 5.434-3.33 7.17-2.218 1.734-5.305 2.602-9.26 2.602H70.012V.683zm15.064 22.83c.996 0 1.764-.213 2.304-.64.57-.427.854-1.038.854-1.835 0-1.536-1.053-2.304-3.158-2.304h-5.163v4.78h5.163zm41.569-.555v7.596h-24.836V.683h24.281v7.596h-14.381v3.499h12.632v7.254h-12.632v3.926h14.936zM159.875.683v29.871h-9.9V8.492h-6.828l-.085 3.457c-.114 4.267-.455 7.766-1.024 10.497s-1.565 4.865-2.987 6.401c-1.423 1.508-3.457 2.262-6.103 2.262-1.337 0-2.759-.185-4.267-.555l.512-8.065c.37.085.74.128 1.11.128 1.052 0 1.849-.427 2.389-1.28.569-.854.953-1.992 1.152-3.414.2-1.423.342-3.286.427-5.59l.384-11.65h25.22zm21.364 9.175c3.727 0 6.601.839 8.62 2.517 2.02 1.65 3.03 4.097 3.03 7.34 0 3.5-1.152 6.188-3.456 8.066-2.305 1.849-5.462 2.773-9.474 2.773h-14.807V.683h9.9v9.175h6.187zm-1.963 13.655c1.025 0 1.864-.313 2.518-.939.655-.654.982-1.55.982-2.688 0-1.992-1.167-2.987-3.5-2.987h-4.224v6.614h4.224zm52.841-8.62c1.678.598 2.959 1.494 3.841 2.688.881 1.167 1.322 2.604 1.322 4.31 0 2.675-1.066 4.794-3.2 6.359-2.105 1.536-5.092 2.304-8.962 2.304h-15.959V.683h15.149c3.698 0 6.557.683 8.577 2.048 2.048 1.366 3.073 3.286 3.073 5.761 0 1.422-.342 2.674-1.025 3.755-.654 1.081-1.593 1.963-2.816 2.646zm-13.058-2.731h4.267c1.65 0 2.475-.726 2.475-2.176 0-1.508-.825-2.262-2.475-2.262h-4.267v4.438zm5.59 11.351c1.65 0 2.475-.797 2.475-2.39 0-1.536-.825-2.304-2.475-2.304h-5.59v4.694h5.59zM240.872.683h9.9v15.533L261.057.683h9.473v29.871h-9.9v-15.49l-10.242 15.49h-9.516V.683zm60.397 7.809h-8.748v22.062h-9.9V8.492h-8.748V.682h27.396v7.81zm22.902 16.856H312.82l-2.006 5.206h-10.241L313.631.683h9.9l13.058 29.871h-10.412l-2.006-5.206zm-2.774-7.254l-2.902-7.511-2.901 7.51h5.803zm38.817-2.902l8.833 15.362h-11.351l-5.718-10.796h-2.817v10.796H339.09V.683h10.071V11.82h3.073L358.592.683h10.498l-8.876 14.509zm25.7 16.045c-3.158 0-6.003-.654-8.535-1.963-2.532-1.337-4.523-3.186-5.974-5.547-1.422-2.39-2.134-5.093-2.134-8.109 0-3.015.712-5.704 2.134-8.065 1.451-2.39 3.442-4.239 5.974-5.547C379.911.669 382.756 0 385.914 0c2.902 0 5.491.512 7.767 1.536 2.275 1.024 4.153 2.504 5.632 4.438l-6.358 5.676c-1.849-2.333-4.025-3.5-6.529-3.5-2.105 0-3.798.683-5.078 2.049-1.28 1.337-1.92 3.144-1.92 5.42 0 2.275.64 4.096 1.92 5.462 1.28 1.337 2.973 2.005 5.078 2.005 2.504 0 4.68-1.166 6.529-3.499l6.358 5.676c-1.479 1.934-3.357 3.414-5.632 4.438-2.276 1.024-4.865 1.536-7.767 1.536z" fill="#3F5D65"/></svg>