<svg width="20" height="20" fill="none" xmlns="http://www.w3.org/2000/svg"><path d="M7.07 17.031c0 .97.789 1.758 1.758 1.758a1.76 1.76 0 001.758-1.758 1.76 1.76 0 00-1.758-1.758 1.76 1.76 0 00-1.758 1.758zm1.758-.586a.587.587 0 11-.001 1.173.587.587 0 01.001-1.173zm4.14.586c0 .97.789 1.758 1.758 1.758a1.76 1.76 0 001.758-1.758 1.76 1.76 0 00-1.758-1.758 1.76 1.76 0 00-1.758 1.758zm1.758-.586a.587.587 0 11-.001 1.174.587.587 0 01.001-1.174z" fill="#fff"/><path d="M19.414 3.555H4.583l-.549-1.919a.586.586 0 00-.563-.425H.586a.586.586 0 000 1.172h2.443l2.83 9.903-.223.444a1.758 1.758 0 001.573 2.543h9.861a.586.586 0 100-1.171H7.209a.586.586 0 01-.525-.848l.162-.324H17.07a.586.586 0 00.563-.425l2.344-8.203a.586.586 0 00-.563-.747zm-2.786 8.203H6.926L4.917 4.727h13.72l-2.009 7.03z" fill="#fff"/></svg>