<svg width="30" height="28" fill="none" xmlns="http://www.w3.org/2000/svg"><path d="M10.605 24.547a2.64 2.64 0 002.637 2.636 2.64 2.64 0 002.637-2.636 2.64 2.64 0 00-2.637-2.637 2.64 2.64 0 00-2.637 2.637zm2.637-.88a.88.88 0 010 1.759.88.88 0 010-1.758zm6.211.88a2.64 2.64 0 002.637 2.636 2.64 2.64 0 002.636-2.636 2.64 2.64 0 00-2.636-2.637 2.64 2.64 0 00-2.637 2.637zm2.637-.88a.88.88 0 010 1.759.88.88 0 010-1.758zm7.03-19.335H6.875l-.822-2.878a.879.879 0 00-.845-.637H.879a.879.879 0 000 1.757h3.665l4.243 14.854-.333.666c-.877 1.755.4 3.816 2.359 3.816h14.792a.879.879 0 000-1.758H10.813a.879.879 0 01-.786-1.272l.243-.485h15.335c.392 0 .737-.26.845-.638l3.516-12.304a.88.88 0 00-.845-1.12zm-4.178 12.305H10.39L7.376 6.09h20.58l-3.014 10.547z" fill="#3F5D65"/></svg>