<svg width="80" height="72" viewBox="0 0 80 72" fill="none" xmlns="http://www.w3.org/2000/svg">
<path d="M63.2021 53.2717H70.4626C71.1098 53.2717 71.6345 52.747 71.6345 52.0998V39.4728C71.6345 38.8256 71.1098 38.3009 70.4626 38.3009H63.2021C62.555 38.3009 62.0303 38.8256 62.0303 39.4728V52.0998C62.0303 52.747 62.555 53.2717 63.2021 53.2717ZM64.374 40.6447H69.2907V50.9279H64.374V40.6447Z" fill="white" fill-opacity="0.4"/>
<path d="M54.2724 39.4728C54.2724 38.8256 53.7477 38.3009 53.1006 38.3009H45.8401C45.1929 38.3009 44.6682 38.8256 44.6682 39.4728V52.0998C44.6682 52.747 45.1929 53.2717 45.8401 53.2717H53.1006C53.7477 53.2717 54.2724 52.747 54.2724 52.0998V39.4728ZM51.9287 50.9279H47.012V40.6447H51.9287V50.9279Z" fill="white" fill-opacity="0.4"/>
<path d="M63.2021 58.3225H70.4626C71.1098 58.3225 71.6345 57.7978 71.6345 57.1506C71.6345 56.5034 71.1098 55.9788 70.4626 55.9788H63.2021C62.555 55.9788 62.0303 56.5034 62.0303 57.1506C62.0303 57.7978 62.555 58.3225 63.2021 58.3225Z" fill="white" fill-opacity="0.4"/>
<path d="M53.1006 55.9788H45.8401C45.1929 55.9788 44.6682 56.5034 44.6682 57.1506C44.6682 57.7978 45.1929 58.3225 45.8401 58.3225H53.1006C53.7477 58.3225 54.2724 57.7978 54.2724 57.1506C54.2724 56.5034 53.7477 55.9788 53.1006 55.9788Z" fill="white" fill-opacity="0.4"/>
<path d="M78.8281 63.7127H76.6855V30.6338C76.6855 30.2049 76.4512 29.8104 76.0747 29.6051L58.7125 20.1348C58.3495 19.937 57.9089 19.9448 57.5531 20.1559C57.1975 20.367 56.9795 20.7499 56.9795 21.1635V28.6596L41.3505 20.1346C40.9875 19.9368 40.5469 19.9446 40.1911 20.1557C39.8355 20.3668 39.6175 20.7498 39.6175 21.1634V28.6596L24.5986 20.4674L24.5991 2.06494C24.5991 1.41775 24.0744 0.893066 23.4272 0.893066H4.48641C3.83922 0.893066 3.31453 1.41775 3.31453 2.06494L3.31406 15.6938C3.31406 16.341 3.83875 16.8657 4.48594 16.8657C5.13312 16.8657 5.65781 16.341 5.65781 15.6938V9.5501H22.2547V29.5095C14.8441 30.1082 8.99672 36.3298 8.99672 43.892C8.99672 51.4542 14.8441 57.6757 22.2547 58.2743V63.7124H5.65781V21.1624C5.65781 20.5153 5.13312 19.9906 4.48594 19.9906C3.83875 19.9906 3.31406 20.5153 3.31406 21.1624V63.7124H1.17188C0.524687 63.7124 0 64.2371 0 64.8843V69.9343C0 70.5815 0.524687 71.1062 1.17188 71.1062H16.6641C17.3113 71.1062 17.8359 70.5815 17.8359 69.9343C17.8359 69.2871 17.3113 68.7624 16.6641 68.7624H2.34375V66.0562H64.0984C64.7456 66.0562 65.2703 65.5315 65.2703 64.8843C65.2703 64.2371 64.7456 63.7124 64.0984 63.7124H24.5984V58.2743C32.0095 57.676 37.8572 51.4543 37.8572 43.8918C37.8572 36.3293 32.0094 30.1074 24.5984 29.5093V23.1374L40.228 31.6626C40.5911 31.8607 41.0317 31.8528 41.3873 31.6415C41.743 31.4304 41.9609 31.0474 41.9609 30.6338V23.1378L57.59 31.6626C57.9531 31.8607 58.3937 31.8528 58.7494 31.6415C59.105 31.4304 59.323 31.0474 59.323 30.6338V23.1376L74.3414 31.3295V63.7127H69.5672C68.92 63.7127 68.3953 64.2374 68.3953 64.8846C68.3953 65.5318 68.92 66.0565 69.5672 66.0565H77.6562V68.7627H22.1328C21.4856 68.7627 20.9609 69.2874 20.9609 69.9346C20.9609 70.5818 21.4856 71.1065 22.1328 71.1065H78.8281C79.4753 71.1065 80 70.5818 80 69.9346V64.8846C80 64.2374 79.4753 63.7127 78.8281 63.7127ZM5.65828 7.20666V3.23697H22.2552V7.2065H5.65828V7.20666ZM35.5136 43.8923C35.5136 50.5556 30.0936 55.9767 23.4308 55.9787C23.4294 55.9787 23.428 55.9785 23.4266 55.9785C23.4253 55.9785 23.4241 55.9787 23.4227 55.9787C16.76 55.9763 11.3405 50.5554 11.3405 43.8923C11.3405 37.2277 16.7625 31.8057 23.427 31.8057C30.0916 31.8057 35.5136 37.2276 35.5136 43.8923Z" fill="white" fill-opacity="0.4"/>
<path d="M14.9236 44.7755C14.5898 47.111 15.208 49.1991 16.6641 50.6551C17.8856 51.8766 19.5453 52.4682 21.3366 52.4682C23.8139 52.4682 26.5422 51.3357 28.7064 49.1715C32.4355 45.4423 33.1009 40.0402 30.19 37.1291C28.7341 35.6732 26.6456 35.0551 24.3105 35.3887C22.0997 35.7045 19.9109 36.8495 18.1478 38.6127C16.3844 40.376 15.2394 42.5648 14.9236 44.7755ZM24.6419 37.709C24.9405 37.6663 25.2317 37.6452 25.5142 37.6452C26.7328 37.6452 27.7845 38.0384 28.5328 38.7866C30.53 40.7838 29.8645 44.6991 27.0492 47.5145C24.2338 50.3296 20.3184 50.9951 18.3214 48.998C17.3998 48.0765 17.017 46.6946 17.2439 45.1071C17.4884 43.3949 18.3981 41.6773 19.8052 40.2702C21.2122 38.8632 22.9297 37.9535 24.6419 37.709Z" fill="white" fill-opacity="0.4"/>
<path d="M21.4418 47.4957C21.7416 47.4957 22.0416 47.3813 22.2704 47.1524C22.87 46.5529 23.004 46.0055 23.0927 45.6433C23.1493 45.4121 23.1596 45.3704 23.2958 45.2341C23.4319 45.098 23.4735 45.0879 23.7046 45.0313C24.0666 44.9427 24.614 44.8088 25.2136 44.2091C25.8133 43.6094 25.9474 43.0621 26.0361 42.6999C26.0929 42.4685 26.1032 42.4266 26.2396 42.2902C26.6972 41.8325 26.6971 41.0905 26.2396 40.6329C25.7818 40.1752 25.0399 40.1754 24.5822 40.6329C23.9825 41.2325 23.8485 41.7799 23.7597 42.1421C23.703 42.3735 23.6927 42.4154 23.5563 42.5518C23.4202 42.6879 23.3785 42.698 23.1475 42.7546C22.7854 42.8432 22.238 42.9771 21.6385 43.5768C21.0388 44.1763 20.9049 44.7236 20.8161 45.0858C20.7596 45.3171 20.7493 45.3588 20.613 45.495C20.1554 45.9527 20.1554 46.6947 20.613 47.1522C20.8419 47.3811 21.1419 47.4957 21.4418 47.4957Z" fill="white" fill-opacity="0.4"/>
</svg>
