<svg width="80" height="80" viewBox="0 0 80 80" fill="none" xmlns="http://www.w3.org/2000/svg">
<g clip-path="url(#clip0)">
<path d="M64.7951 49.7274C64.1885 49.7274 63.5904 49.7643 63.0023 49.8341C63.0515 49.0667 63.0888 48.3021 63.1108 47.5412C63.1115 47.5186 63.1115 47.4958 63.1108 47.4732C63.0466 45.2626 62.8667 43.0224 62.5758 40.7661C62.5778 40.7661 62.5799 40.7663 62.5819 40.7663C63.148 40.7663 63.7169 40.7441 64.2866 40.6997C70.1588 40.2414 75.4759 37.4996 79.2589 32.9792C79.9823 32.1148 80.0935 30.9211 79.5422 29.938C78.9834 28.9413 77.891 28.4068 76.7593 28.5753C76.1279 28.6695 75.4825 28.7336 74.8408 28.7658C70.7531 28.9721 66.7715 27.8847 63.3727 25.675C63.3822 25.4412 63.3797 25.2055 63.3616 24.9683C63.143 22.1002 60.815 19.7725 57.9469 19.5539C57.7514 19.539 57.5568 19.5373 57.363 19.5419C55.7638 16.9575 54.7903 14.0221 54.5459 10.9308C54.3465 8.40625 54.6304 5.91571 55.3897 3.52823C55.734 2.446 55.3814 1.29224 54.4914 0.588869C53.5967 -0.118252 52.3863 -0.195086 51.4071 0.393505C47.9321 2.48223 45.1134 5.49437 43.256 9.10447C41.3422 12.8244 40.5509 17.0059 40.9677 21.1971C41.0225 21.7475 41.0992 22.2927 41.1946 22.8324C32.9816 22.2106 24.7108 22.3995 16.5328 23.3998L14.2852 23.6748C12.918 23.8419 11.5989 23.2503 10.8421 22.1308C9.65834 20.38 7.61068 19.3913 5.49978 19.554C2.64365 19.7724 0.317243 22.0899 0.0883034 24.9447C-0.0386599 26.529 0.458262 28.0621 1.48771 29.2616C2.2929 30.1999 2.60368 31.4392 2.31898 32.5769C2.13908 33.2961 1.96855 34.0293 1.81238 34.7564C1.67652 35.3888 2.07911 36.0116 2.71159 36.1475C3.34437 36.2832 3.96685 35.8808 4.10272 35.2483C4.25326 34.5468 4.41771 33.8394 4.59121 33.1457C5.06002 31.2723 4.56435 29.2499 3.2652 27.7361C2.64553 27.0139 2.34647 26.0891 2.42315 25.1318C2.56089 23.4148 3.96029 22.021 5.67812 21.8895C6.97228 21.7908 8.17694 22.3711 8.90124 23.4424C10.1532 25.2942 12.3247 26.2743 14.5695 25.9996L16.817 25.7246C26.7145 24.514 36.751 24.514 46.6479 25.7246L48.8794 25.9976C51.1232 26.2717 53.2947 25.2927 54.547 23.4416C55.271 22.3711 56.4745 21.7902 57.7685 21.8895C59.4937 22.021 60.894 23.421 61.0255 25.1462C61.0991 26.1101 60.7922 27.0385 60.1618 27.7604C58.8369 29.2774 58.3221 31.3143 58.7852 33.2089C59.9627 38.0268 60.6298 42.8372 60.768 47.507C60.7405 48.437 60.6893 49.3729 60.62 50.313C54.2977 52.1297 49.6585 57.9649 49.6585 64.8634C49.6585 66.2985 49.8593 67.6876 50.2343 69.0041C49.7903 68.9588 49.3366 68.9601 48.8794 69.0162L46.6479 69.2891C36.7507 70.4997 26.7139 70.4997 16.8169 69.2891L14.5693 69.0141C12.3246 68.7394 10.1529 69.7195 8.90109 71.5714C8.17694 72.6425 6.97196 73.2222 5.67797 73.1243C3.95998 72.9929 2.56057 71.599 2.42284 69.8821C2.34616 68.9248 2.64506 68 3.26488 67.2779C4.56403 65.764 5.05971 63.7416 4.59089 61.8683C3.40465 57.1283 2.7614 52.2964 2.67895 47.5067C2.71861 45.202 2.89258 42.8498 3.19602 40.5155C3.27941 39.8741 2.82699 39.2864 2.18546 39.203C1.54237 39.1193 0.956276 39.5721 0.87304 40.2136C0.557584 42.6412 0.377055 45.0885 0.336452 47.487C0.336296 47.5002 0.336296 47.5133 0.336452 47.5266C0.420469 52.5009 1.0873 57.5175 2.31852 62.4369C2.60321 63.5745 2.29244 64.8139 1.48724 65.7521C0.457793 66.9516 -0.0391284 68.4847 0.0878349 70.0692C0.316775 72.9241 2.64319 75.2416 5.49931 75.4599C5.64955 75.4715 5.79931 75.4771 5.94845 75.4771C7.89756 75.4771 9.74204 74.5095 10.8416 72.8833C11.5986 71.7637 12.9175 71.1723 14.2848 71.3393L16.5323 71.6143C26.6182 72.848 36.8461 72.848 46.9323 71.6143L49.1638 71.3413C49.9215 71.2489 50.6644 71.3904 51.3054 71.7252C53.8116 76.6321 58.9173 79.9996 64.7948 79.9996C67.1644 79.9996 69.434 79.4671 71.5405 78.4167C72.1194 78.128 72.3546 77.4248 72.066 76.8459C71.7774 76.267 71.0744 76.0321 70.4952 76.3204C68.7163 77.2074 66.7984 77.6572 64.7948 77.6572C57.7403 77.6572 52.001 71.9179 52.001 64.8634C52.001 57.8089 57.7403 52.0696 64.7948 52.0696C71.8493 52.0696 77.5886 57.8089 77.5886 64.8634C77.5886 67.9481 76.4756 70.9273 74.4546 73.2523C74.0303 73.7405 74.082 74.4803 74.5702 74.9047C75.0585 75.329 75.7983 75.2773 76.2226 74.7892C78.6139 72.038 79.931 68.513 79.931 64.8634C79.9314 56.5175 73.1412 49.7274 64.7951 49.7274ZM52.6069 22.1295C51.8498 23.2488 50.5296 23.8391 49.1641 23.6729L46.9326 23.3999C45.8302 23.265 44.7258 23.1477 43.6203 23.0423C43.4767 22.3605 43.3686 21.6676 43.2988 20.9655C42.9266 17.2245 43.6322 13.4938 45.3389 10.1764C46.997 6.95406 49.5125 4.2655 52.6138 2.40134C52.6858 2.35808 52.7522 2.34137 52.812 2.34137C52.9055 2.34137 52.9827 2.38228 53.0389 2.42664C53.1274 2.49675 53.22 2.62153 53.1574 2.81814C52.3057 5.49577 51.9871 8.28741 52.2106 11.1154C52.4639 14.3201 53.4146 17.3747 54.9721 20.1069C54.0313 20.5513 53.2075 21.2416 52.6069 22.1295ZM61.0611 32.6531C60.7788 31.4981 61.1024 30.2452 61.9266 29.3016C62.2611 28.9186 62.54 28.5006 62.7618 28.0574C66.4217 30.2541 70.6368 31.3223 74.9585 31.1055C75.676 31.0694 76.3981 30.9976 77.1048 30.8922C77.3362 30.8577 77.4505 30.9974 77.4989 31.0836C77.5765 31.2222 77.5642 31.354 77.4625 31.4758C74.0873 35.5091 69.3433 37.9554 64.1045 38.3644C63.4786 38.4133 62.8547 38.4303 62.2341 38.4189C61.9224 36.5028 61.5317 34.5782 61.0611 32.6531Z" fill="white" fill-opacity="0.4"/>
<path d="M71.9565 60.5619H69.097V57.7024C69.097 56.5951 68.196 55.6942 67.0888 55.6942H62.5016C61.3944 55.6942 60.4934 56.5951 60.4934 57.7024V60.5619H57.6339C56.5267 60.5619 55.6257 61.4628 55.6257 62.5701V67.1573C55.6257 68.2645 56.5267 69.1654 57.6339 69.1654H60.4934V72.025C60.4934 73.1322 61.3944 74.0331 62.5016 74.0331H67.0888C68.196 74.0331 69.097 73.1322 69.097 72.025V69.1654H71.9565C73.0637 69.1654 73.9647 68.2645 73.9647 67.1573V62.5701C73.9647 61.4628 73.0639 60.5619 71.9565 60.5619ZM71.6222 66.8229H68.7626C67.6554 66.8229 66.7545 67.7239 66.7545 68.8311V71.6906H62.8361V68.8311C62.8361 67.7239 61.9352 66.8229 60.8279 66.8229H57.9684V62.9044H60.8279C61.9352 62.9044 62.8361 62.0035 62.8361 60.8963V58.0367H66.7545V60.8963C66.7545 62.0035 67.6554 62.9044 68.7626 62.9044H71.6222V66.8229Z" fill="white" fill-opacity="0.4"/>
</g>
<defs>
<clipPath id="clip0">
<rect width="80" height="80" fill="white"/>
</clipPath>
</defs>
</svg>
