<svg width="80" height="80" viewBox="0 0 80 80" fill="none" xmlns="http://www.w3.org/2000/svg">
<path d="M29.5312 36.7169H32.5781C32.5781 37.3642 33.1027 37.8887 33.75 37.8887C34.3973 37.8887 34.9219 37.3642 34.9219 36.7169V35.545C34.9219 34.8976 34.3973 34.3731 33.75 34.3731H29.5312C28.8839 34.3731 28.3594 34.8976 28.3594 35.545C28.3594 36.1923 28.8839 36.7169 29.5312 36.7169Z" fill="white" fill-opacity="0.4"/>
<path d="M46.25 37.8887C46.8973 37.8887 47.4219 37.3642 47.4219 36.7169H50.4688C51.1161 36.7169 51.6406 36.1923 51.6406 35.545C51.6406 34.8976 51.1161 34.3731 50.4688 34.3731H46.25C45.6027 34.3731 45.0781 34.8976 45.0781 35.545V36.7169C45.0781 37.3642 45.6027 37.8887 46.25 37.8887Z" fill="white" fill-opacity="0.4"/>
<path d="M20.1072 42.0852C20.6658 52.5739 29.3745 60.9356 40 60.9356C50.6255 60.9356 59.3342 52.5739 59.8928 42.0852C63.0114 41.5416 65.3906 38.8169 65.3906 35.545C65.3906 33.7228 64.6525 32.07 63.46 30.8689C64.6042 30.2883 65.3906 29.1008 65.3906 27.7325C65.3906 25.9249 64.0189 24.4319 62.2619 24.2386C62.1852 19.4486 60.615 14.9158 57.7075 11.1081C55.0022 7.56486 51.2366 4.87924 47.0312 3.47658V1.90845C47.0312 1.37377 46.6694 0.906892 46.1514 0.773455C42.1536 -0.255295 37.8464 -0.255295 33.8486 0.773455C33.3306 0.906736 32.9688 1.37377 32.9688 1.90845V3.47658C28.7636 4.87924 24.9978 7.56502 22.2925 11.1083C19.3852 14.916 17.8148 19.4488 17.7381 24.2388C15.9811 24.4321 14.6094 25.925 14.6094 27.7327C14.6094 29.1011 15.3958 30.2886 16.54 30.8691C15.3475 32.0702 14.6094 33.7228 14.6094 35.5452C14.6094 38.8169 16.9884 41.5416 20.1072 42.0852ZM47.0312 5.96424C54.5734 8.81377 59.7523 16.0785 59.9137 24.2169H47.0312V5.96424ZM32.9688 5.96424V12.1075C32.9688 12.7549 33.4933 13.2794 34.1406 13.2794C34.788 13.2794 35.3125 12.7549 35.3125 12.1075V2.83595C38.3786 2.17986 41.6214 2.17986 44.6875 2.83595V24.2169H35.3125V16.795C35.3125 16.1477 34.788 15.6231 34.1406 15.6231C33.4933 15.6231 32.9688 16.1477 32.9688 16.795V24.2169H20.0863C20.2477 16.0783 25.4266 8.81377 32.9688 5.96424ZM18.125 26.5606H61.875C62.5213 26.5606 63.0469 27.0863 63.0469 27.7325C63.0469 28.3788 62.5213 28.9044 61.875 28.9044H18.125C17.4787 28.9044 16.9531 28.3788 16.9531 27.7325C16.9531 27.0863 17.4787 26.5606 18.125 26.5606ZM20.0781 31.4105V33.2013C20.0781 33.8486 20.6027 34.3731 21.25 34.3731C21.8973 34.3731 22.4219 33.8486 22.4219 33.2013V31.2481H57.5781V33.2013C57.5781 33.8486 58.1027 34.3731 58.75 34.3731C59.3973 34.3731 59.9219 33.8486 59.9219 33.2013V31.4105C61.7234 31.9217 63.0469 33.5817 63.0469 35.545C63.0469 37.508 61.7231 39.1666 59.9219 39.6781V37.8888C59.9219 37.2414 59.3973 36.7169 58.75 36.7169C58.1027 36.7169 57.5781 37.2414 57.5781 37.8888V41.0138C57.5781 50.7063 49.6925 58.5919 40 58.5919C30.3075 58.5919 22.4219 50.7063 22.4219 41.0138V37.8888C22.4219 37.2414 21.8973 36.7169 21.25 36.7169C20.6027 36.7169 20.0781 37.2414 20.0781 37.8888V39.6781C18.2769 39.1666 16.9531 37.508 16.9531 35.545C16.9531 33.5819 18.2766 31.9219 20.0781 31.4105Z" fill="white" fill-opacity="0.4"/>
<path d="M35.2649 44.9117C36.5298 46.1765 38.2112 46.8731 39.9999 46.8731C41.7884 46.8731 43.4701 46.1765 44.7349 44.9118C45.1926 44.454 45.1926 43.7121 44.7349 43.2545C44.2771 42.797 43.5352 42.797 43.0776 43.2545C42.2556 44.0767 41.1626 44.5293 40.0001 44.5293C38.8376 44.5293 37.7445 44.0767 36.9226 43.2546C36.4648 42.797 35.7228 42.7968 35.2654 43.2545C34.8074 43.7121 34.8074 44.4542 35.2649 44.9117Z" fill="white" fill-opacity="0.4"/>
<path d="M69.4531 63.2794H18.75V51.5606C18.75 46.3912 14.5444 42.1856 9.375 42.1856C4.20563 42.1856 0 46.3912 0 51.5606V78.8262C0 79.4736 0.524531 79.9981 1.17188 79.9981H78.8281C79.4755 79.9981 80 79.4736 80 78.8262V73.8262C80 68.0106 75.2688 63.2794 69.4531 63.2794ZM44.2334 65.6231L42.6709 70.3106H37.3291L35.7666 65.6231H44.2334ZM11.7188 77.6544H2.34375V57.7517C4.06297 59.7019 6.57687 60.9356 9.375 60.9356C10.1756 60.9356 10.9591 60.8367 11.7188 60.6406V77.6544ZM16.4062 77.6544H14.0625V58.9733C14.0625 58.5714 13.8566 58.1973 13.5167 57.9826C13.1767 57.7678 12.7509 57.7423 12.3877 57.9147C11.442 58.3639 10.4284 58.5917 9.375 58.5917C5.49797 58.5917 2.34375 55.4375 2.34375 51.5605C2.34375 47.6834 5.49797 44.5292 9.375 44.5292C13.252 44.5292 16.4062 47.6834 16.4062 51.5605V77.6544ZM22.4219 77.6544H18.75V65.6231H22.4219V77.6544ZM33.2845 77.6544H24.7656V65.6231H33.2959L35.2517 71.4905L33.2845 77.6544ZM35.7447 77.6544L37.3405 72.6544H42.6597L44.2555 77.6544H35.7447ZM55.2344 77.6544H46.7155L44.7483 71.4905L46.7041 65.6231H55.2344V77.6544ZM57.5781 77.5709V65.6231H64.6094V69.4512C64.6094 73.5765 61.5481 77.0005 57.5781 77.5709ZM77.6562 77.6544H63.0252C65.4187 75.7194 66.9531 72.7617 66.9531 69.4512V65.6231H69.4531C73.9762 65.6231 77.6562 69.3031 77.6562 73.8262V77.6544Z" fill="white" fill-opacity="0.4"/>
</svg>
