<svg width="35" height="35" fill="none" xmlns="http://www.w3.org/2000/svg"><path d="M32.494 17.143l-4.466-4.99a3.65 3.65 0 00-2.717-1.216h-3.998l.378-3.404a2.19 2.19 0 00-2.174-2.429H4.375a.73.73 0 000 1.458h15.142a.72.72 0 01.543.243.72.72 0 01.181.567l-1.935 17.42h-4.032a3.706 3.706 0 00-.855-2.338c-.709-.844-1.75-1.308-2.932-1.308-2.142 0-4.195 1.588-4.853 3.646H2.188a.73.73 0 000 1.458h3.225c.018.877.31 1.686.856 2.337.709.844 1.75 1.309 2.932 1.309 2.142 0 4.195-1.589 4.853-3.646h7.037c.017.877.31 1.686.855 2.337.709.844 1.75 1.309 2.932 1.309 2.142 0 4.195-1.589 4.853-3.646h1.04a2.183 2.183 0 002.175-1.959l.457-4.335a3.655 3.655 0 00-.91-2.813zM12.77 25.394c-.295 1.679-1.897 3.044-3.57 3.044-.744 0-1.389-.28-1.815-.788-.439-.523-.606-1.234-.47-2.002.296-1.679 1.898-3.044 3.571-3.044.744 0 1.388.28 1.815.788.438.523.605 1.234.47 2.002zm15.678 0c-.296 1.679-1.898 3.044-3.571 3.044-.744 0-1.389-.28-1.815-.788-.439-.523-.606-1.234-.47-2.002.296-1.679 1.898-3.044 3.571-3.044.744 0 1.388.28 1.815.788.438.523.605 1.234.47 2.002zm3.503-5.59l-.456 4.335a.728.728 0 01-.725.653h-.82a3.706 3.706 0 00-.855-2.338c-.709-.844-1.75-1.308-2.932-1.308-2.142 0-4.195 1.588-4.853 3.646h-1.538l1.378-12.396h4.16a2.19 2.19 0 011.63.729l4.466 4.99c.41.46.61 1.076.545 1.689zm-6.258-5.714a.73.73 0 00-.538-.236h-1.822a.73.73 0 00-.727.669l-.365 4.375a.731.731 0 00.727.79h6.198a.73.73 0 00.538-1.222l-4.01-4.376zm-1.932 4.14l.242-2.918h.832l2.673 2.917h-3.747zm-8.45-7.293H10.21a.73.73 0 010-1.458h5.104a.73.73 0 010 1.459zm-9.478 0a.73.73 0 010-1.458h1.458a.73.73 0 010 1.459H5.834zm8.02 2.917a.73.73 0 010 1.459h-1.458a.73.73 0 010-1.459h1.458zm-9.479 0H9.48a.73.73 0 010 1.459H4.375a.73.73 0 010-1.459zm-2.187 5.104a.73.73 0 01.729-.729h9.479a.73.73 0 010 1.459h-9.48a.73.73 0 01-.728-.73zM20.78 29.167a.73.73 0 01-.729.729H16.77a.73.73 0 010-1.459h3.281a.73.73 0 01.73.73zm-15.677 0a.73.73 0 01-.729.729H2.552a.73.73 0 010-1.459h1.823a.73.73 0 01.73.73z" fill="#EE5C5D"/></svg>