<svg width="30" height="30" fill="none" xmlns="http://www.w3.org/2000/svg"><path d="M24.457 12.198c.587-.521 1.253-1.112 1.253-1.94 0-.827-.666-1.417-1.253-1.938-.333-.295-.71-.63-.79-.878-.088-.271.022-.781.12-1.231.162-.752.347-1.604-.122-2.249-.474-.65-1.346-.737-2.116-.814-.454-.046-.97-.097-1.194-.26-.22-.16-.424-.629-.605-1.043-.312-.714-.665-1.524-1.44-1.775a1.46 1.46 0 00-.451-.07c-.592 0-1.155.328-1.7.646-.404.235-.862.502-1.16.502-.297 0-.754-.267-1.158-.502C13.296.328 12.733 0 12.14 0c-.157 0-.309.024-.451.07-.775.251-1.129 1.061-1.44 1.775-.181.414-.386.883-.605 1.042-.225.164-.74.215-1.194.26-.77.078-1.643.165-2.116.815-.47.645-.285 1.497-.122 2.249.098.45.208.96.12 1.231-.08.248-.457.583-.79.877-.587.522-1.253 1.112-1.253 1.94 0 .827.666 1.418 1.253 1.939.333.295.71.629.79.877.088.272-.022.782-.12 1.232-.163.751-.347 1.604.122 2.248.473.65 1.344.738 2.114.814L5.332 27.412a.6.6 0 00.814.727l3.225-1.412 1.859 2.99a.6.6 0 001.082-.14L15 20.918l2.688 8.66a.6.6 0 001.082.14l1.859-2.99 3.225 1.412a.6.6 0 00.814-.727L21.55 17.369c.77-.076 1.64-.164 2.114-.814.469-.644.284-1.496.122-2.248-.098-.45-.208-.96-.12-1.232.08-.248.457-.582.79-.877zm-12.902 15.77l-1.44-2.316a.6.6 0 00-.75-.233l-2.498 1.095 2.76-8.895.018.011c.219.16.424.629.604 1.042.312.715.666 1.524 1.44 1.775.143.047.296.07.452.07.592 0 1.155-.328 1.7-.645l.276-.16-2.562 8.256zm9.08-2.549a.6.6 0 00-.75.233l-1.44 2.316-2.562-8.256.276.16c.545.317 1.108.645 1.7.645.156 0 .308-.023.451-.07.775-.251 1.128-1.06 1.44-1.775.181-.414.386-.883.605-1.042l.017-.011 2.76 8.894-2.498-1.094zm1.89-12.715c-.188.58-.047 1.229.089 1.856.104.481.233 1.08.08 1.29-.156.215-.77.277-1.264.326-.636.063-1.293.129-1.78.484-.483.35-.746.951-1 1.532-.2.458-.449 1.03-.71 1.114a.26.26 0 01-.082.011c-.267 0-.707-.256-1.095-.482-.561-.327-1.142-.666-1.763-.666-.622 0-1.202.339-1.763.666-.389.226-.829.482-1.096.482a.26.26 0 01-.08-.01c-.262-.086-.512-.657-.712-1.115-.254-.58-.516-1.181-.998-1.532-.489-.355-1.146-.42-1.781-.484-.494-.05-1.108-.111-1.265-.327-.153-.21-.023-.808.08-1.288.137-.628.277-1.277.089-1.857-.181-.558-.666-.988-1.135-1.404-.398-.353-.85-.754-.85-1.041 0-.288.452-.689.85-1.042.469-.416.954-.846 1.135-1.404.188-.58.048-1.229-.088-1.856-.104-.48-.234-1.079-.081-1.289.157-.216.771-.277 1.265-.326.635-.064 1.292-.13 1.78-.484.483-.352.745-.952.999-1.533.2-.458.45-1.029.71-1.114a.263.263 0 01.082-.011c.267 0 .707.256 1.096.483.56.327 1.141.665 1.763.665.621 0 1.202-.338 1.763-.665.388-.227.828-.483 1.096-.483.03 0 .057.004.08.011.262.085.511.656.712 1.115.253.58.516 1.18.998 1.532.488.355 1.145.42 1.78.484.494.049 1.109.11 1.266.326.152.21.023.808-.081 1.289-.136.627-.277 1.276-.088 1.856.181.558.666.988 1.135 1.404.398.354.85.754.85 1.042 0 .287-.452.688-.85 1.041-.47.416-.954.846-1.135 1.404z" fill="#EE5C5D"/><path d="M15 3.46c-3.75 0-6.8 3.05-6.8 6.799 0 3.749 3.05 6.8 6.8 6.8 3.749 0 6.8-3.051 6.8-6.8 0-3.75-3.05-6.8-6.8-6.8zm0 12.398a5.606 5.606 0 01-5.6-5.6A5.606 5.606 0 0115 4.659c3.087 0 5.6 2.512 5.6 5.6 0 3.088-2.513 5.6-5.6 5.6z" fill="#EE5C5D"/><path d="M15 5.534a4.73 4.73 0 00-4.725 4.725.6.6 0 101.2 0A3.529 3.529 0 0115 6.734a.6.6 0 100-1.2z" fill="#EE5C5D"/></svg>