<svg width="400" height="78" viewBox="0 0 400 78" fill="none" xmlns="http://www.w3.org/2000/svg">
<path d="M7.11736 64.7142H2.6823V73.6121H0.686523V54.2087H2.6823V62.9125H7.11736L13.6868 54.2087H15.9043L8.69735 63.6332L16.3201 73.6121H13.964L7.11736 64.7142Z" fill="#ED7878"/>
<path d="M27.9554 73.7784C26.0336 73.7784 24.2873 73.3533 22.7165 72.5033C21.1642 71.6348 19.9446 70.4521 19.0576 68.9552C18.189 67.4584 17.7548 65.7768 17.7548 63.9104C17.7548 62.0439 18.189 60.3623 19.0576 58.8655C19.9446 57.3687 21.1642 56.1952 22.7165 55.3452C24.2873 54.4766 26.0336 54.0424 27.9554 54.0424C29.8773 54.0424 31.6051 54.4674 33.1389 55.3174C34.6912 56.1675 35.9108 57.3502 36.7978 58.8655C37.6848 60.3623 38.1283 62.0439 38.1283 63.9104C38.1283 65.7768 37.6848 67.4677 36.7978 68.983C35.9108 70.4798 34.6912 71.6532 33.1389 72.5033C31.6051 73.3533 29.8773 73.7784 27.9554 73.7784ZM27.9554 71.9489C29.4892 71.9489 30.8752 71.607 32.1133 70.9233C33.3514 70.2211 34.3216 69.2602 35.0238 68.0405C35.726 66.8024 36.0771 65.4257 36.0771 63.9104C36.0771 62.3951 35.726 61.0276 35.0238 59.8079C34.3216 58.5698 33.3514 57.6089 32.1133 56.9252C30.8752 56.2229 29.4892 55.8718 27.9554 55.8718C26.4216 55.8718 25.0264 56.2229 23.7698 56.9252C22.5317 57.6089 21.5523 58.5698 20.8316 59.8079C20.1294 61.0276 19.7783 62.3951 19.7783 63.9104C19.7783 65.4257 20.1294 66.8024 20.8316 68.0405C21.5523 69.2602 22.5317 70.2211 23.7698 70.9233C25.0264 71.607 26.4216 71.9489 27.9554 71.9489Z" fill="#ED7878"/>
<path d="M63.1749 54.2087V73.6121H61.2069V58.0894L53.5841 71.1451H52.6139L44.9912 58.1725V73.6121H43.0231V54.2087H44.714L53.1406 68.5949L61.4841 54.2087H63.1749Z" fill="#ED7878"/>
<path d="M90.4752 63.8826C90.4752 66.4513 89.5605 68.4748 87.731 69.9531C85.92 71.413 83.3791 72.1891 80.1083 72.2815V74.2773H78.1957V72.2815C74.9248 72.1707 72.3746 71.3853 70.5452 69.9254C68.7342 68.4655 67.8287 66.4513 67.8287 63.8826C67.8287 61.314 68.7342 59.2998 70.5452 57.8399C72.3746 56.38 74.9248 55.5946 78.1957 55.4838V53.5434H80.1083V55.4838C83.3606 55.5946 85.9016 56.3892 87.731 57.8676C89.5605 59.3275 90.4752 61.3325 90.4752 63.8826ZM80.1083 70.6461C82.7878 70.5352 84.8575 69.8977 86.3174 68.7335C87.7772 67.5693 88.5072 65.9523 88.5072 63.8826C88.5072 61.813 87.768 60.196 86.2896 59.0318C84.8298 57.8676 82.7693 57.2393 80.1083 57.1469V70.6461ZM69.7968 63.8826C69.7968 65.9523 70.5267 67.5693 71.9866 68.7335C73.4649 69.8792 75.5346 70.5168 78.1957 70.6461V57.1469C75.4977 57.2578 73.4187 57.8953 71.9589 59.0595C70.5175 60.2052 69.7968 61.813 69.7968 63.8826Z" fill="#ED7878"/>
<path d="M103.642 73.7784C101.72 73.7784 99.9734 73.3533 98.4027 72.5033C96.8504 71.6348 95.6308 70.4521 94.7437 68.9552C93.8752 67.4584 93.4409 65.7768 93.4409 63.9104C93.4409 62.0439 93.8752 60.3623 94.7437 58.8655C95.6308 57.3687 96.8504 56.1952 98.4027 55.3452C99.9734 54.4766 101.72 54.0424 103.642 54.0424C105.563 54.0424 107.291 54.4674 108.825 55.3174C110.377 56.1675 111.597 57.3502 112.484 58.8655C113.371 60.3623 113.814 62.0439 113.814 63.9104C113.814 65.7768 113.371 67.4677 112.484 68.983C111.597 70.4798 110.377 71.6532 108.825 72.5033C107.291 73.3533 105.563 73.7784 103.642 73.7784ZM103.642 71.9489C105.175 71.9489 106.561 71.607 107.799 70.9233C109.038 70.2211 110.008 69.2602 110.71 68.0405C111.412 66.8024 111.763 65.4257 111.763 63.9104C111.763 62.3951 111.412 61.0276 110.71 59.8079C110.008 58.5698 109.038 57.6089 107.799 56.9252C106.561 56.2229 105.175 55.8718 103.642 55.8718C102.108 55.8718 100.713 56.2229 99.456 56.9252C98.2179 57.6089 97.2385 58.5698 96.5178 59.8079C95.8156 61.0276 95.4644 62.3951 95.4644 63.9104C95.4644 65.4257 95.8156 66.8024 96.5178 68.0405C97.2385 69.2602 98.2179 70.2211 99.456 70.9233C100.713 71.607 102.108 71.9489 103.642 71.9489Z" fill="#ED7878"/>
<path d="M125.972 54.2087C128.448 54.2087 130.388 54.8 131.793 55.9827C133.197 57.1654 133.899 58.7916 133.899 60.8613C133.899 62.931 133.197 64.5571 131.793 65.7398C130.388 66.904 128.448 67.4861 125.972 67.4861H120.761V73.6121H118.709V54.2087H125.972ZM125.916 65.6844C127.838 65.6844 129.307 65.2686 130.324 64.437C131.34 63.587 131.848 62.3951 131.848 60.8613C131.848 59.2905 131.34 58.0894 130.324 57.2578C129.307 56.4077 127.838 55.9827 125.916 55.9827H120.761V65.6844H125.916Z" fill="#ED7878"/>
<path d="M150.164 55.9827H143.345V73.6121H141.321V55.9827H134.502V54.2087H150.164V55.9827Z" fill="#ED7878"/>
<path d="M172.522 63.6055C173.871 63.8826 174.897 64.4278 175.599 65.2409C176.301 66.0355 176.652 67.0796 176.652 68.3731C176.652 70.0548 176.052 71.3483 174.851 72.2538C173.668 73.1593 171.922 73.6121 169.612 73.6121H161.019V54.2087H169.085C171.155 54.2087 172.772 54.6337 173.936 55.4838C175.1 56.3338 175.682 57.5627 175.682 59.1704C175.682 60.2607 175.405 61.1847 174.851 61.9423C174.296 62.6815 173.52 63.2359 172.522 63.6055ZM163.042 62.9956H168.974C170.471 62.9956 171.617 62.6907 172.411 62.0809C173.224 61.4711 173.631 60.5841 173.631 59.4199C173.631 58.2557 173.224 57.3687 172.411 56.7588C171.617 56.149 170.471 55.8441 168.974 55.8441H163.042V62.9956ZM169.612 71.9766C172.957 71.9766 174.629 70.7293 174.629 68.2346C174.629 65.7953 172.957 64.5756 169.612 64.5756H163.042V71.9766H169.612Z" fill="#ED7878"/>
<path d="M195.467 64.7142H191.031V73.6121H189.036V54.2087H191.031V62.9125H195.467L202.036 54.2087H204.254L197.047 63.6332L204.669 73.6121H202.313L195.467 64.7142Z" fill="#ED7878"/>
<path d="M220.024 68.4286H209.213L206.885 73.6121H204.75L213.62 54.2087H215.644L224.514 73.6121H222.352L220.024 68.4286ZM219.275 66.7654L214.618 56.3431L209.961 66.7654H219.275Z" fill="#ED7878"/>
<path d="M243.111 64.7142H239.092V73.6121H237.096V64.7142H233.049L227.117 73.6121H224.733L231.386 63.6055L225.232 54.2087H227.45L233.021 62.9125H237.096V54.2087H239.092V62.9125H243.111L248.71 54.2087H250.928L244.774 63.6055L251.427 73.6121H249.043L243.111 64.7142Z" fill="#ED7878"/>
<path d="M272.881 71.838V77.964H270.969V73.6121H254.032L254.005 77.964H252.092L252.12 71.838H253.09C254.365 71.7641 255.252 70.757 255.751 68.8167C256.25 66.8578 256.555 64.0859 256.666 60.5009L256.888 54.2087H269.971V71.838H272.881ZM258.495 60.695C258.403 63.6517 258.172 66.0909 257.802 68.0128C257.451 69.9162 256.851 71.1913 256.001 71.838H267.947V55.9827H258.662L258.495 60.695Z" fill="#ED7878"/>
<path d="M285.187 61.1385C287.479 61.1385 289.225 61.6559 290.426 62.6907C291.646 63.7256 292.256 65.2409 292.256 67.2367C292.256 69.3248 291.609 70.9141 290.315 72.0044C289.04 73.0762 287.192 73.6121 284.771 73.6121H277.066V54.2087H279.089V61.1385H285.187ZM284.716 71.9766C286.509 71.9766 287.867 71.5793 288.791 70.7847C289.733 69.9901 290.204 68.8167 290.204 67.2644C290.204 64.2892 288.375 62.8016 284.716 62.8016H279.089V71.9766H284.716ZM295.61 54.2087H297.633V73.6121H295.61V54.2087Z" fill="#ED7878"/>
<path d="M304.162 54.2087H306.186V70.2858L318.604 54.2087H320.461V73.6121H318.437V57.5627L306.019 73.6121H304.162V54.2087ZM312.256 52.795C310.87 52.795 309.771 52.4809 308.957 51.8526C308.163 51.2243 307.756 50.3465 307.738 49.2192H309.262C309.281 49.9584 309.558 50.5405 310.094 50.9655C310.63 51.3906 311.351 51.6031 312.256 51.6031C313.143 51.6031 313.855 51.3906 314.39 50.9655C314.945 50.5405 315.231 49.9584 315.25 49.2192H316.774C316.756 50.3465 316.34 51.2243 315.527 51.8526C314.714 52.4809 313.624 52.795 312.256 52.795Z" fill="#ED7878"/>
<path d="M352.087 71.838V77.964H350.174V73.6121H333.238L333.21 77.964H331.297L331.325 71.838H332.295C333.57 71.7641 334.457 70.757 334.956 68.8167C335.455 66.8578 335.76 64.0859 335.871 60.5009L336.093 54.2087H349.176V71.838H352.087ZM337.7 60.695C337.608 63.6517 337.377 66.0909 337.007 68.0128C336.656 69.9162 336.056 71.1913 335.206 71.838H347.153V55.9827H337.867L337.7 60.695Z" fill="#ED7878"/>
<path d="M364.78 73.7784C362.859 73.7784 361.112 73.3533 359.542 72.5033C357.989 71.6348 356.77 70.4521 355.883 68.9552C355.014 67.4584 354.58 65.7768 354.58 63.9104C354.58 62.0439 355.014 60.3623 355.883 58.8655C356.77 57.3687 357.989 56.1952 359.542 55.3452C361.112 54.4766 362.859 54.0424 364.78 54.0424C366.702 54.0424 368.43 54.4674 369.964 55.3174C371.516 56.1675 372.736 57.3502 373.623 58.8655C374.51 60.3623 374.953 62.0439 374.953 63.9104C374.953 65.7768 374.51 67.4677 373.623 68.983C372.736 70.4798 371.516 71.6532 369.964 72.5033C368.43 73.3533 366.702 73.7784 364.78 73.7784ZM364.78 71.9489C366.314 71.9489 367.7 71.607 368.938 70.9233C370.176 70.2211 371.147 69.2602 371.849 68.0405C372.551 66.8024 372.902 65.4257 372.902 63.9104C372.902 62.3951 372.551 61.0276 371.849 59.8079C371.147 58.5698 370.176 57.6089 368.938 56.9252C367.7 56.2229 366.314 55.8718 364.78 55.8718C363.247 55.8718 361.852 56.2229 360.595 56.9252C359.357 57.6089 358.377 58.5698 357.657 59.8079C356.954 61.0276 356.603 62.3951 356.603 63.9104C356.603 65.4257 356.954 66.8024 357.657 68.0405C358.377 69.2602 359.357 70.2211 360.595 70.9233C361.852 71.607 363.247 71.9489 364.78 71.9489Z" fill="#ED7878"/>
<path d="M400 54.2087V73.6121H398.032V58.0894L390.409 71.1451H389.439L381.816 58.1725V73.6121H379.848V54.2087H381.539L389.966 68.5949L398.309 54.2087H400Z" fill="#ED7878"/>
<path d="M26.671 30.5542L26.5856 16.9414L20.0992 27.8658H15.6612L9.17481 17.4108V30.5542H0V0.682775H8.27866L18.0082 16.6L27.4817 0.682775H35.7604L35.8458 30.5542H26.671Z" fill="#3F5D65"/>
<path d="M65.9259 22.9584V30.5542H41.0899V0.682775H65.3712V8.27866H50.9902V11.7779H63.6216V19.0324H50.9902V22.9584H65.9259Z" fill="#3F5D65"/>
<path d="M70.0112 0.682775H95.9141V8.27866H79.9115V11.7352H87.038C90.6795 11.7352 93.4675 12.5176 95.402 14.0823C97.365 15.6185 98.3465 17.8518 98.3465 20.782C98.3465 23.826 97.2369 26.2158 95.0179 27.9512C92.7989 29.6865 89.7122 30.5542 85.7578 30.5542H70.0112V0.682775ZM85.075 23.5131C86.0707 23.5131 86.8388 23.2997 87.3794 22.873C87.9483 22.4463 88.2328 21.8346 88.2328 21.038C88.2328 19.5018 87.1802 18.7337 85.075 18.7337H79.9115V23.5131H85.075Z" fill="#3F5D65"/>
<path d="M126.644 22.9584V30.5542H101.808V0.682775H126.089V8.27866H111.708V11.7779H124.34V19.0324H111.708V22.9584H126.644Z" fill="#3F5D65"/>
<path d="M159.875 0.682775V30.5542H149.975V8.49203H143.147L143.062 11.9486C142.948 16.2159 142.607 19.7152 142.038 22.4463C141.469 25.1774 140.473 27.3111 139.051 28.8473C137.628 30.3551 135.594 31.109 132.948 31.109C131.611 31.109 130.189 30.9241 128.681 30.5542L129.193 22.4889C129.563 22.5743 129.933 22.617 130.303 22.617C131.355 22.617 132.152 22.1902 132.692 21.3368C133.261 20.4833 133.645 19.3453 133.844 17.9229C134.044 16.5004 134.186 14.637 134.271 12.3326L134.655 0.682775H159.875Z" fill="#3F5D65"/>
<path d="M181.239 9.85758C184.966 9.85758 187.84 10.6968 189.859 12.3753C191.879 14.0254 192.889 16.472 192.889 19.7152C192.889 23.2144 191.737 25.9028 189.433 27.7805C187.128 29.6296 183.971 30.5542 179.959 30.5542H165.152V0.682775H175.052V9.85758H181.239ZM179.276 23.5131C180.301 23.5131 181.14 23.2002 181.794 22.5743C182.449 21.92 182.776 21.0238 182.776 19.8859C182.776 17.8944 181.609 16.8987 179.276 16.8987H175.052V23.5131H179.276Z" fill="#3F5D65"/>
<path d="M232.117 14.8931C233.795 15.4905 235.076 16.3866 235.958 17.5815C236.839 18.7479 237.28 20.1846 237.28 21.8915C237.28 24.5657 236.214 26.6852 234.08 28.2499C231.975 29.7861 228.988 30.5542 225.118 30.5542H209.159V0.682775H224.308C228.006 0.682775 230.865 1.36555 232.885 2.73111C234.933 4.09666 235.958 6.01697 235.958 8.49203C235.958 9.91448 235.616 11.1662 234.933 12.2473C234.279 13.3284 233.34 14.2103 232.117 14.8931ZM219.059 12.162H223.326C224.976 12.162 225.801 11.4365 225.801 9.9856C225.801 8.47781 224.976 7.72391 223.326 7.72391H219.059V12.162ZM224.649 23.5131C226.299 23.5131 227.124 22.7165 227.124 21.1234C227.124 19.5871 226.299 18.819 224.649 18.819H219.059V23.5131H224.649Z" fill="#3F5D65"/>
<path d="M240.872 0.682775H250.772V16.2159L261.057 0.682775H270.53V30.5542H260.63V15.0638L250.388 30.5542H240.872V0.682775Z" fill="#3F5D65"/>
<path d="M301.269 8.49203H292.521V30.5542H282.621V8.49203H273.873V0.682775H301.269V8.49203Z" fill="#3F5D65"/>
<path d="M324.171 25.3481H312.82L310.814 30.5542H300.573L313.631 0.682775H323.531L336.589 30.5542H326.177L324.171 25.3481ZM321.397 18.0936L318.495 10.583L315.594 18.0936H321.397Z" fill="#3F5D65"/>
<path d="M360.214 15.1918L369.047 30.5542H357.696L351.978 19.7578H349.161V30.5542H339.09V0.682775H349.161V11.8206H352.234L358.592 0.682775H369.09L360.214 15.1918Z" fill="#3F5D65"/>
<path d="M385.914 31.237C382.756 31.237 379.911 30.5827 377.379 29.274C374.847 27.9369 372.856 26.0877 371.405 23.7265C369.983 21.3368 369.271 18.6341 369.271 15.6185C369.271 12.6029 369.983 9.91448 371.405 7.55321C372.856 5.1635 374.847 3.31431 377.379 2.00566C379.911 0.668552 382.756 0 385.914 0C388.816 0 391.405 0.512082 393.681 1.53625C395.956 2.56041 397.834 4.03976 399.313 5.97429L392.955 11.6499C391.106 9.31705 388.93 8.15064 386.426 8.15064C384.321 8.15064 382.628 8.83342 381.348 10.199C380.068 11.5361 379.428 13.3426 379.428 15.6185C379.428 17.8944 380.068 19.7152 381.348 21.0807C382.628 22.4178 384.321 23.0864 386.426 23.0864C388.93 23.0864 391.106 21.92 392.955 19.5871L399.313 25.2627C397.834 27.1973 395.956 28.6766 393.681 29.7008C391.405 30.7249 388.816 31.237 385.914 31.237Z" fill="#3F5D65"/>
</svg>
