<svg width="80" height="80" fill="none" xmlns="http://www.w3.org/2000/svg"><g clip-path="url(#clip0)" fill="#fff" fill-opacity=".4"><path d="M64.795 49.727c-.606 0-1.205.037-1.793.107a65.39 65.39 0 00.109-2.36 67.907 67.907 0 00-.535-6.708h.006c.566 0 1.135-.022 1.705-.066 5.872-.459 11.189-3.2 14.972-7.72a2.67 2.67 0 00.283-3.042 2.708 2.708 0 00-2.783-1.363 19.13 19.13 0 01-1.918.19 19.19 19.19 0 01-11.468-3.09 6.05 6.05 0 00-.011-.707c-.219-2.868-2.547-5.195-5.415-5.414a5.846 5.846 0 00-.584-.012 19.203 19.203 0 01-2.817-8.611c-.2-2.525.084-5.015.844-7.403a2.681 2.681 0 00-.899-2.94 2.695 2.695 0 00-3.084-.194 21.78 21.78 0 00-8.151 8.71 21.681 21.681 0 00-2.061 13.728 125.324 125.324 0 00-24.662.568l-2.248.275c-1.367.167-2.686-.425-3.443-1.544A5.914 5.914 0 005.5 19.554c-2.856.218-5.183 2.536-5.412 5.39a5.861 5.861 0 001.4 4.318c.805.938 1.116 2.177.831 3.315-.18.72-.35 1.452-.507 2.18a1.171 1.171 0 002.29.491 64.13 64.13 0 01.49-2.102c.468-1.874-.028-3.896-1.327-5.41a3.536 3.536 0 01-.842-2.604 3.563 3.563 0 013.255-3.242 3.523 3.523 0 013.223 1.552c1.252 1.852 3.424 2.832 5.668 2.558l2.248-.275a122.967 122.967 0 0129.83 0l2.232.273c2.244.274 4.416-.705 5.668-2.556a3.52 3.52 0 013.222-1.552 3.56 3.56 0 013.257 3.256 3.534 3.534 0 01-.864 2.614c-1.325 1.517-1.84 3.554-1.377 5.449 1.178 4.818 1.845 9.628 1.983 14.298-.028.93-.079 1.866-.148 2.806-6.322 1.817-10.962 7.652-10.962 14.55 0 1.436.201 2.825.576 4.141a6.061 6.061 0 00-1.355.012l-2.231.273a122.967 122.967 0 01-29.831 0l-2.248-.275c-2.244-.275-4.416.706-5.668 2.557a3.525 3.525 0 01-3.223 1.553 3.563 3.563 0 01-3.255-3.242 3.535 3.535 0 01.842-2.604c1.299-1.514 1.795-3.536 1.326-5.41a63.774 63.774 0 01-1.912-14.361 62.84 62.84 0 01.517-6.991 1.171 1.171 0 00-2.323-.302 65.241 65.241 0 00-.537 7.313 66.11 66.11 0 001.983 14.91c.284 1.138-.027 2.377-.832 3.315a5.861 5.861 0 00-1.4 4.317c.23 2.855 2.556 5.173 5.412 5.39a5.916 5.916 0 005.342-2.577c.758-1.118 2.077-1.71 3.444-1.543l2.247.275a125.312 125.312 0 0030.4 0l2.232-.273a3.66 3.66 0 012.141.384C53.812 76.632 58.917 80 64.795 80c2.37 0 4.639-.533 6.745-1.583a1.171 1.171 0 00-1.045-2.097 12.662 12.662 0 01-5.7 1.337C57.74 77.657 52 71.917 52 64.863S57.74 52.07 64.794 52.07s12.794 5.739 12.794 12.793a12.79 12.79 0 01-3.134 8.39 1.171 1.171 0 001.768 1.536 15.13 15.13 0 003.708-9.926c0-8.346-6.79-15.136-15.136-15.136zM52.607 22.13c-.757 1.119-2.077 1.71-3.443 1.543l-2.231-.273a124.734 124.734 0 00-3.313-.358 19.375 19.375 0 01-.321-2.077 19.342 19.342 0 012.04-10.789 19.441 19.441 0 017.275-7.775.382.382 0 01.198-.06c.094 0 .17.041.227.086.088.07.181.195.118.391a21.623 21.623 0 00-.946 8.297 21.545 21.545 0 002.761 8.992 5.888 5.888 0 00-2.365 2.023zm8.454 10.523c-.282-1.155.041-2.408.866-3.351.334-.383.613-.801.835-1.245a21.526 21.526 0 0012.197 3.049 22.24 22.24 0 002.146-.214.365.365 0 01.394.192.32.32 0 01-.036.392c-3.376 4.033-8.12 6.48-13.358 6.888a19.2 19.2 0 01-1.87.055 75.004 75.004 0 00-1.174-5.766z"/><path d="M71.957 60.562h-2.86v-2.86a2.01 2.01 0 00-2.008-2.008h-4.587a2.01 2.01 0 00-2.009 2.008v2.86h-2.86a2.01 2.01 0 00-2.007 2.008v4.587a2.01 2.01 0 002.008 2.008h2.86v2.86a2.01 2.01 0 002.008 2.008h4.587a2.01 2.01 0 002.008-2.008v-2.86h2.86a2.01 2.01 0 002.008-2.008V62.57a2.01 2.01 0 00-2.008-2.008zm-.335 6.26h-2.86a2.01 2.01 0 00-2.008 2.01v2.859h-3.918v-2.86a2.01 2.01 0 00-2.008-2.008h-2.86v-3.919h2.86a2.01 2.01 0 002.008-2.008v-2.86h3.918v2.86a2.01 2.01 0 002.009 2.008h2.86v3.919z"/></g><defs><clipPath id="clip0"><path fill="#fff" d="M0 0h80v80H0z"/></clipPath></defs></svg>