<svg width="80" height="72" fill="none" xmlns="http://www.w3.org/2000/svg"><path d="M63.202 53.272h7.26c.648 0 1.172-.525 1.172-1.172V39.473c0-.647-.524-1.172-1.171-1.172h-7.26c-.648 0-1.173.525-1.173 1.172V52.1c0 .647.525 1.172 1.172 1.172zm1.172-12.627h4.917v10.283h-4.917V40.645zm-10.102-1.172c0-.647-.524-1.172-1.171-1.172h-7.26c-.648 0-1.173.525-1.173 1.172V52.1c0 .647.525 1.172 1.172 1.172h7.26c.648 0 1.172-.525 1.172-1.172V39.473zM51.93 50.928h-4.917V40.645h4.917v10.283zm11.272 7.394h7.26a1.172 1.172 0 000-2.343h-7.26a1.172 1.172 0 000 2.343zM53.1 55.979h-7.26a1.172 1.172 0 100 2.343h7.26a1.172 1.172 0 000-2.343z" fill="#fff" fill-opacity=".4"/><path d="M78.828 63.713h-2.142v-33.08c0-.428-.235-.823-.611-1.028l-17.363-9.47a1.173 1.173 0 00-1.733 1.028v7.497L41.35 20.135a1.173 1.173 0 00-1.733 1.028v7.497L24.6 20.467V2.065c0-.647-.525-1.172-1.172-1.172H4.487c-.648 0-1.172.525-1.172 1.172v13.629a1.172 1.172 0 002.343 0V9.55h16.597v19.96c-7.41.598-13.258 6.82-13.258 14.382 0 7.562 5.847 13.784 13.258 14.382v5.438H5.658v-42.55a1.172 1.172 0 00-2.344 0v42.55H1.172c-.647 0-1.172.525-1.172 1.172v5.05c0 .648.525 1.172 1.172 1.172h15.492a1.172 1.172 0 000-2.344H2.344v-2.706h61.754a1.172 1.172 0 000-2.344h-39.5v-5.438c7.412-.598 13.26-6.82 13.26-14.382 0-7.563-5.849-13.785-13.26-14.383v-6.372l15.63 8.526a1.171 1.171 0 001.733-1.03v-7.495l15.629 8.525a1.171 1.171 0 001.733-1.03v-7.495l15.018 8.191v32.384h-4.774a1.172 1.172 0 000 2.343h8.09v2.707H22.132a1.172 1.172 0 000 2.343h56.695c.647 0 1.172-.524 1.172-1.171v-5.05c0-.648-.525-1.172-1.172-1.172zM5.658 7.207v-3.97h16.597v3.97H5.658zm29.856 36.685c0 6.664-5.42 12.085-12.083 12.087h-.008c-6.663-.003-12.082-5.424-12.082-12.087 0-6.664 5.421-12.086 12.086-12.086s12.087 5.422 12.087 12.086z" fill="#fff" fill-opacity=".4"/><path d="M14.924 44.776c-.334 2.335.284 4.423 1.74 5.88 1.222 1.22 2.881 1.812 4.673 1.812 2.477 0 5.205-1.132 7.37-3.297 3.728-3.729 4.394-9.13 1.483-12.042-1.456-1.456-3.544-2.074-5.88-1.74-2.21.316-4.4 1.46-6.162 3.224-1.764 1.763-2.909 3.952-3.224 6.163zm9.718-7.067c.299-.043.59-.064.872-.064 1.219 0 2.27.393 3.019 1.142 1.997 1.997 1.331 5.912-1.484 8.727-2.815 2.816-6.73 3.481-8.728 1.484-.921-.921-1.304-2.303-1.077-3.89.244-1.713 1.154-3.43 2.561-4.838 1.407-1.407 3.125-2.317 4.837-2.561z" fill="#fff" fill-opacity=".4"/><path d="M21.442 47.496c.3 0 .6-.115.828-.344.6-.6.734-1.147.823-1.509.056-.23.067-.273.203-.409.136-.136.178-.146.409-.203.362-.088.909-.222 1.509-.822.6-.6.733-1.147.822-1.51.057-.23.067-.272.204-.409a1.172 1.172 0 00-1.658-1.657c-.6.6-.733 1.147-.822 1.51-.057.23-.067.272-.204.409-.136.136-.178.146-.409.203-.362.088-.909.222-1.508.822-.6.6-.734 1.147-.823 1.509-.056.231-.067.273-.203.409a1.172 1.172 0 00.829 2z" fill="#fff" fill-opacity=".4"/></svg>