<svg width="80" height="80" fill="none" xmlns="http://www.w3.org/2000/svg"><path d="M29.531 36.717h3.047a1.172 1.172 0 102.344 0v-1.172c0-.647-.525-1.172-1.172-1.172h-4.219a1.172 1.172 0 100 2.344zm16.719 1.172c.647 0 1.172-.525 1.172-1.172h3.047a1.172 1.172 0 100-2.344H46.25c-.647 0-1.172.525-1.172 1.172v1.172c0 .647.525 1.172 1.172 1.172z" fill="#fff" fill-opacity=".4"/><path d="M20.107 42.085c.559 10.489 9.268 18.85 19.893 18.85 10.626 0 19.334-8.361 19.893-18.85 3.118-.543 5.498-3.268 5.498-6.54a6.62 6.62 0 00-1.931-4.676 3.519 3.519 0 001.93-3.136 3.52 3.52 0 00-3.128-3.494 22.05 22.05 0 00-4.554-13.13A22.454 22.454 0 0047.03 3.476V1.908c0-.534-.362-1.001-.88-1.135a24.907 24.907 0 00-12.302 0c-.518.134-.88.6-.88 1.135v1.569a22.455 22.455 0 00-10.677 7.631 22.05 22.05 0 00-4.554 13.13 3.52 3.52 0 00-3.129 3.495c0 1.368.787 2.556 1.931 3.136a6.619 6.619 0 00-1.93 4.676c0 3.272 2.378 5.997 5.497 6.54zm26.924-36.12c7.542 2.849 12.721 10.113 12.883 18.252H47.03V5.964zm-14.062 0v6.143a1.172 1.172 0 102.343 0V2.835a22.573 22.573 0 019.376 0v21.38h-9.376v-7.421a1.172 1.172 0 10-2.343 0v7.422H20.086c.162-8.139 5.34-15.403 12.883-18.253zM18.125 26.56h43.75a1.173 1.173 0 010 2.343h-43.75a1.173 1.173 0 010-2.343zm1.953 4.85v1.79a1.172 1.172 0 102.344 0v-1.953h35.156V33.2a1.172 1.172 0 102.344 0v-1.79a4.305 4.305 0 013.125 4.134 4.304 4.304 0 01-3.125 4.133v-1.79a1.172 1.172 0 10-2.344 0v3.126c0 9.692-7.886 17.578-17.578 17.578s-17.578-7.886-17.578-17.578v-3.125a1.172 1.172 0 10-2.344 0v1.79a4.304 4.304 0 01-3.125-4.134 4.305 4.305 0 013.125-4.135z" fill="#fff" fill-opacity=".4"/><path d="M35.265 44.912A6.653 6.653 0 0040 46.873c1.788 0 3.47-.697 4.735-1.961a1.172 1.172 0 10-1.657-1.657A4.323 4.323 0 0140 44.529a4.323 4.323 0 01-3.077-1.274 1.172 1.172 0 00-1.658 1.657zM69.453 63.28H18.75V51.56c0-5.169-4.206-9.374-9.375-9.374C4.205 42.186 0 46.39 0 51.56v27.265c0 .648.525 1.172 1.172 1.172h77.656c.647 0 1.172-.524 1.172-1.172v-5c0-5.815-4.731-10.547-10.547-10.547zm-25.22 2.343l-1.562 4.688h-5.342l-1.562-4.688h8.466zM11.72 77.654H2.344V57.752a9.353 9.353 0 007.031 3.184c.8 0 1.584-.1 2.344-.295v17.013zm4.687 0h-2.343v-18.68a1.172 1.172 0 00-1.675-1.06 6.96 6.96 0 01-3.013.678 7.04 7.04 0 01-7.031-7.032 7.04 7.04 0 017.031-7.03 7.04 7.04 0 017.031 7.03v26.094zm6.016 0H18.75v-12.03h3.672v12.03zm10.863 0h-8.52v-12.03h8.53l1.957 5.867-1.968 6.163zm2.46 0l1.596-5h5.319l1.596 5h-8.511zm19.49 0h-8.52l-1.967-6.163 1.956-5.868h8.53v12.031zm2.343-.083V65.623h7.031v3.828c0 4.126-3.06 7.55-7.03 8.12zm20.078.083h-14.63a10.53 10.53 0 003.927-8.203v-3.828h2.5c4.523 0 8.203 3.68 8.203 8.203v3.828z" fill="#fff" fill-opacity=".4"/></svg>