<svg width="35" height="35" viewBox="0 0 35 35" fill="none" xmlns="http://www.w3.org/2000/svg">
<path d="M32.4937 17.1434L28.0275 12.1523C27.3366 11.3805 26.3468 10.9375 25.3106 10.9375H21.3126L21.691 7.53301C21.7596 6.91541 21.5609 6.29525 21.1464 5.83259C20.7318 5.36994 20.1379 5.10416 19.5167 5.10416H4.37516C3.97266 5.10416 3.646 5.43082 3.646 5.83332C3.646 6.23582 3.97266 6.56249 4.37516 6.56249H19.5167C19.7267 6.56249 19.9195 6.64853 20.0599 6.8053C20.1999 6.96207 20.2648 7.16296 20.2415 7.37223L18.3059 24.7917H14.2743C14.2568 23.9152 13.9648 23.1055 13.4187 22.4543C12.7103 21.6103 11.6694 21.1458 10.487 21.1458C8.34475 21.1458 6.29178 22.7343 5.63407 24.7917H2.18766C1.78516 24.7917 1.4585 25.1183 1.4585 25.5208C1.4585 25.9233 1.78516 26.25 2.18766 26.25H5.4135C5.431 27.1265 5.72303 27.9362 6.26917 28.5873C6.97756 29.4314 8.01844 29.8958 9.20079 29.8958C11.3431 29.8958 13.396 28.3073 14.0538 26.25H21.0906C21.1081 27.1265 21.4001 27.9362 21.9463 28.5873C22.6546 29.4314 23.6955 29.8958 24.8779 29.8958C27.0202 29.8958 29.0731 28.3073 29.7308 26.25H30.7706C31.8935 26.25 32.8287 25.4078 32.9461 24.2915L33.4026 19.9562C33.5101 18.935 33.1787 17.9098 32.4937 17.1434ZM12.7715 25.394C12.4758 27.0725 10.8739 28.4375 9.20079 28.4375C8.45704 28.4375 7.81245 28.1575 7.38626 27.65C6.9473 27.1268 6.78032 26.4159 6.91594 25.6477C7.21199 23.9692 8.81396 22.6042 10.487 22.6042C11.2308 22.6042 11.8754 22.8842 12.3016 23.3917C12.7402 23.9148 12.9071 24.6258 12.7715 25.394ZM28.4486 25.394C28.1529 27.0725 26.5509 28.4375 24.8779 28.4375C24.1341 28.4375 23.4895 28.1575 23.0633 27.65C22.6244 27.1268 22.4574 26.4159 22.593 25.6477C22.8891 23.9692 24.491 22.6042 26.1641 22.6042C26.9079 22.6042 27.5525 22.8842 27.9787 23.3917C28.4172 23.9148 28.5842 24.6258 28.4486 25.394ZM31.9522 19.8038L31.4958 24.1391C31.4564 24.5109 31.1451 24.7917 30.7706 24.7917H29.9514C29.9339 23.9152 29.6419 23.1055 29.0957 22.4543C28.3874 21.6103 27.3465 21.1458 26.1641 21.1458C24.0218 21.1458 21.9689 22.7343 21.3112 24.7917H19.773L21.1507 12.3958H25.3106C25.9322 12.3958 26.5265 12.6616 26.941 13.125L31.4072 18.1158C31.8177 18.5755 32.0164 19.1909 31.9522 19.8038ZM25.6942 14.0904C25.556 13.9398 25.3609 13.8542 25.1564 13.8542H23.3335C22.9543 13.8542 22.6386 14.1447 22.6069 14.5228L22.2423 18.8978C22.2255 19.1012 22.2944 19.3018 22.4322 19.4523C22.5704 19.6022 22.7647 19.6875 22.9689 19.6875H29.1668C29.4559 19.6875 29.7181 19.5165 29.8344 19.2522C29.9507 18.9871 29.8996 18.6791 29.7046 18.4658L25.6942 14.0904ZM23.7615 18.2292L24.0043 15.3125H24.8356L27.5091 18.2292H23.7615ZM15.3127 10.9375H10.2085C9.806 10.9375 9.47933 10.6108 9.47933 10.2083C9.47933 9.80582 9.806 9.47916 10.2085 9.47916H15.3127C15.7152 9.47916 16.0418 9.80582 16.0418 10.2083C16.0418 10.6108 15.7152 10.9375 15.3127 10.9375ZM5.8335 10.9375C5.431 10.9375 5.10433 10.6108 5.10433 10.2083C5.10433 9.80582 5.431 9.47916 5.8335 9.47916H7.29183C7.69433 9.47916 8.021 9.80582 8.021 10.2083C8.021 10.6108 7.69433 10.9375 7.29183 10.9375H5.8335ZM13.8543 13.8542C14.2568 13.8542 14.5835 14.1808 14.5835 14.5833C14.5835 14.9858 14.2568 15.3125 13.8543 15.3125H12.396C11.9935 15.3125 11.6668 14.9858 11.6668 14.5833C11.6668 14.1808 11.9935 13.8542 12.396 13.8542H13.8543ZM4.37516 13.8542H9.47933C9.88183 13.8542 10.2085 14.1808 10.2085 14.5833C10.2085 14.9858 9.88183 15.3125 9.47933 15.3125H4.37516C3.97266 15.3125 3.646 14.9858 3.646 14.5833C3.646 14.1808 3.97266 13.8542 4.37516 13.8542ZM2.18766 18.9583C2.18766 18.5558 2.51433 18.2292 2.91683 18.2292H12.396C12.7985 18.2292 13.1252 18.5558 13.1252 18.9583C13.1252 19.3608 12.7985 19.6875 12.396 19.6875H2.91683C2.51433 19.6875 2.18766 19.3608 2.18766 18.9583ZM20.7814 29.1667C20.7814 29.5692 20.4547 29.8958 20.0522 29.8958H16.771C16.3685 29.8958 16.0418 29.5692 16.0418 29.1667C16.0418 28.7642 16.3685 28.4375 16.771 28.4375H20.0522C20.4547 28.4375 20.7814 28.7642 20.7814 29.1667ZM5.10433 29.1667C5.10433 29.5692 4.77766 29.8958 4.37516 29.8958H2.55225C2.14975 29.8958 1.82308 29.5692 1.82308 29.1667C1.82308 28.7642 2.14975 28.4375 2.55225 28.4375H4.37516C4.77766 28.4375 5.10433 28.7642 5.10433 29.1667Z" fill="#EE5C5D"/>
</svg>
