<svg width="30" height="30" viewBox="0 0 30 30" fill="none" xmlns="http://www.w3.org/2000/svg">
<path d="M24.4568 12.1978C25.0444 11.6766 25.7102 11.0861 25.7102 10.2587C25.7102 9.43137 25.0444 8.84071 24.4568 8.31957C24.1243 8.02472 23.7475 7.69052 23.667 7.44247C23.5786 7.17058 23.689 6.66071 23.7865 6.21084C23.9493 5.459 24.1339 4.6067 23.6647 3.96221C23.1913 3.3118 22.3186 3.22461 21.5487 3.14774C21.0945 3.10238 20.5799 3.05103 20.3551 2.88736C20.1359 2.72794 19.931 2.25895 19.7503 1.84516C19.4382 1.13092 19.0847 0.321405 18.31 0.0699923C18.167 0.0235974 18.0152 0 17.8586 0C17.267 0 16.7036 0.328364 16.1588 0.646009C15.7549 0.881344 15.2973 1.14811 14.9999 1.14811C14.7023 1.14811 14.2447 0.881344 13.8408 0.646009C13.296 0.328364 12.7326 0 12.1409 0C11.9842 0 11.8324 0.0235974 11.6895 0.0699923C10.915 0.321485 10.5614 1.131 10.2495 1.84508C10.0687 2.25887 9.86374 2.72786 9.64472 2.88728C9.41971 3.05095 8.90513 3.1023 8.4511 3.14766C7.68102 3.22453 6.80832 3.31172 6.33509 3.96213C5.86594 4.6067 6.0504 5.45892 6.21342 6.21076C6.31077 6.66063 6.42124 7.1705 6.33293 7.44239C6.2523 7.69036 5.87562 8.02456 5.54317 8.31941C4.95556 8.84063 4.28955 9.43129 4.28955 10.2586C4.28955 11.0861 4.95556 11.6768 5.54317 12.1979C5.87562 12.4927 6.25246 12.8268 6.33293 13.0747C6.42124 13.3467 6.31077 13.8566 6.21342 14.3065C6.05048 15.0584 5.86594 15.9107 6.33501 16.5552C6.80791 17.2048 7.67926 17.2925 8.44854 17.3693L5.33216 27.412C5.26248 27.6363 5.33016 27.8806 5.50526 28.0371C5.68028 28.1936 5.93065 28.2336 6.14583 28.1393L9.37068 26.727L11.2297 29.7168C11.34 29.8944 11.5336 30 11.739 30C11.7643 30 11.7899 29.9985 11.8155 29.9951C12.0485 29.9653 12.2425 29.8022 12.312 29.5779L14.9999 20.9165L17.6876 29.5779C17.7573 29.8022 17.9513 29.9653 18.1843 29.9951C18.2099 29.9985 18.2354 30 18.2608 30C18.4662 30 18.6597 29.8943 18.7701 29.7168L20.629 26.727L23.8539 28.1393C24.0687 28.2336 24.3193 28.1938 24.4943 28.0371C24.6694 27.8806 24.7371 27.6363 24.6676 27.412L21.5512 17.3695C22.3206 17.2927 23.1918 17.205 23.6647 16.5553C24.1339 15.9107 23.9494 15.0585 23.7865 14.3066C23.689 13.8567 23.5786 13.3468 23.667 13.0748C23.7475 12.8268 24.1243 12.4926 24.4568 12.1978ZM11.5552 27.9682L10.1154 25.6523C9.95789 25.399 9.63825 25.3 9.36516 25.4195L6.86727 26.5135L9.62729 17.619C9.63289 17.6228 9.63913 17.6263 9.64464 17.6302C9.86366 17.7897 10.0687 18.2586 10.2494 18.6724C10.5613 19.3865 10.9151 20.196 11.6895 20.4474C11.8325 20.4938 11.9845 20.5174 12.1411 20.5174C12.7327 20.5174 13.2961 20.1889 13.8409 19.8715C13.9311 19.819 14.0238 19.765 14.1171 19.7126L11.5552 27.9682ZM20.6344 25.4195C20.3615 25.3 20.0418 25.3991 19.8843 25.6522L18.4443 27.9681L15.8826 19.7123C15.9757 19.7646 16.0687 19.8187 16.1588 19.8713C16.7036 20.1889 17.267 20.5172 17.8586 20.5172C18.0153 20.5172 18.1672 20.4937 18.3102 20.4473C19.0847 20.1958 19.4384 19.3863 19.7503 18.6722C19.9311 18.2584 20.1361 17.7895 20.3551 17.6301C20.3604 17.6262 20.3667 17.6226 20.3724 17.6189L23.1324 26.5133L20.6344 25.4195ZM22.5257 12.7042C22.3374 13.2841 22.4779 13.933 22.6137 14.5604C22.7179 15.0411 22.8474 15.6393 22.6947 15.8492C22.5375 16.0651 21.9231 16.1265 21.4295 16.1758C20.7941 16.2392 20.137 16.3047 19.6491 16.6599C19.1668 17.0109 18.9044 17.6113 18.6509 18.1918C18.4504 18.6504 18.2011 19.2212 17.9395 19.3061C17.9161 19.3137 17.8897 19.3174 17.8585 19.3174C17.5911 19.3174 17.1511 19.061 16.7629 18.8347C16.2017 18.5077 15.6214 18.1695 14.9998 18.1695C14.378 18.1695 13.7978 18.5077 13.2366 18.8347C12.8485 19.061 12.4085 19.3174 12.1411 19.3174C12.11 19.3174 12.0836 19.3137 12.0601 19.3061C11.7986 19.2212 11.5492 18.6504 11.3488 18.1918C11.0952 17.6112 10.8329 17.0108 10.3506 16.6599C9.86246 16.3047 9.20541 16.2391 8.5698 16.1757C8.07626 16.1264 7.46208 16.065 7.3049 15.8492C7.15212 15.6393 7.28162 15.0412 7.38569 14.5606C7.5216 13.9331 7.66222 13.2843 7.47384 12.7041C7.29258 12.1458 6.80784 11.7159 6.33909 11.3003C5.94065 10.9469 5.48918 10.5464 5.48918 10.2587C5.48918 9.97099 5.94065 9.57047 6.33909 9.21715C6.80776 8.80144 7.29258 8.37148 7.474 7.81299C7.66222 7.23297 7.52168 6.58424 7.38585 5.95679C7.28162 5.47612 7.15212 4.87811 7.3049 4.66813C7.46208 4.45223 8.07642 4.39088 8.57004 4.34161C9.20541 4.27817 9.86238 4.21266 10.3505 3.8575C10.8328 3.50642 11.0951 2.906 11.3487 2.32543C11.5492 1.86684 11.7985 1.2961 12.0599 1.21115C12.0833 1.20363 12.1099 1.19987 12.1409 1.19987C12.4084 1.19987 12.8484 1.4564 13.2366 1.68262C13.7978 2.00978 14.378 2.34798 14.9998 2.34798C15.6214 2.34798 16.2017 2.0097 16.7629 1.68262C17.1512 1.4564 17.5911 1.19987 17.8586 1.19987C17.8897 1.19987 17.9161 1.20363 17.9394 1.21123C18.201 1.2961 18.4503 1.86684 18.6508 2.32559C18.9045 2.90624 19.1668 3.50666 19.6491 3.85758C20.137 4.21266 20.7941 4.27825 21.4295 4.34169C21.9231 4.39096 22.5376 4.45231 22.6947 4.66821C22.8474 4.87819 22.7179 5.47636 22.6137 5.95687C22.478 6.58432 22.3375 7.23313 22.5257 7.81299C22.707 8.37148 23.1917 8.80144 23.6606 9.21731C24.0589 9.57055 24.5104 9.97107 24.5104 10.2588C24.5104 10.5465 24.0588 10.947 23.6606 11.3002C23.1918 11.7158 22.707 12.1458 22.5257 12.7042Z" fill="#EE5C5D"/>
<path d="M14.9998 3.45914C11.2505 3.45914 8.2002 6.50944 8.2002 10.2587C8.2002 14.008 11.2505 17.0583 14.9998 17.0583C18.749 17.0583 21.7993 14.008 21.7993 10.2587C21.7993 6.50944 18.7491 3.45914 14.9998 3.45914ZM14.9998 15.8584C11.9119 15.8584 9.40006 13.3465 9.40006 10.2587C9.40006 7.17097 11.9119 4.65901 14.9998 4.65901C18.0874 4.65901 20.5995 7.17097 20.5995 10.2587C20.5995 13.3465 18.0874 15.8584 14.9998 15.8584Z" fill="#EE5C5D"/>
<path d="M14.9999 5.5343C12.3949 5.5343 10.2754 7.65367 10.2754 10.2588C10.2754 10.5902 10.5439 10.8588 10.8753 10.8588C11.2067 10.8588 11.4753 10.5902 11.4753 10.2588C11.4753 8.31536 13.0564 6.73417 14.9999 6.73417C15.3313 6.73417 15.5998 6.46564 15.5998 6.13424C15.5998 5.80283 15.3313 5.5343 14.9999 5.5343Z" fill="#EE5C5D"/>
</svg>
