<svg width="20" height="20" viewBox="0 0 20 20" fill="none" xmlns="http://www.w3.org/2000/svg">
<path d="M7.07031 17.0312C7.07031 18.0004 7.85885 18.7889 8.8281 18.7889C9.79734 18.7889 10.5859 18.0004 10.5859 17.0312C10.5859 16.0619 9.79734 15.2734 8.8281 15.2734C7.85885 15.2734 7.07031 16.0619 7.07031 17.0312ZM8.8281 16.4452C9.15118 16.4452 9.41403 16.7081 9.41403 17.0312C9.41403 17.3542 9.15118 17.6171 8.8281 17.6171C8.50502 17.6171 8.24217 17.3542 8.24217 17.0312C8.24217 16.7081 8.50502 16.4452 8.8281 16.4452Z" fill="white"/>
<path d="M12.9683 17.0312C12.9683 18.0004 13.7568 18.7889 14.726 18.7889C15.6953 18.7889 16.4838 18.0004 16.4838 17.0312C16.4838 16.0619 15.6953 15.2734 14.726 15.2734C13.7568 15.2734 12.9683 16.0619 12.9683 17.0312ZM14.726 16.4452C15.0491 16.4452 15.312 16.7081 15.312 17.0312C15.312 17.3542 15.0491 17.6171 14.726 17.6171C14.403 17.6171 14.1401 17.3542 14.1401 17.0312C14.1401 16.7081 14.403 16.4452 14.726 16.4452Z" fill="white"/>
<path d="M19.4138 3.55483H4.58262C4.382 2.85254 4.19505 2.19818 4.03447 1.63611C3.96263 1.38456 3.73268 1.21112 3.47108 1.21112H0.585928C0.26234 1.21112 0 1.47346 0 1.79705C0 2.12064 0.26234 2.38298 0.585928 2.38298H3.02909C3.68432 4.67654 5.21609 10.0379 5.85827 12.2856L5.63628 12.7295C5.05133 13.8995 5.90323 15.2734 7.20852 15.2734H17.07C17.3936 15.2734 17.656 15.0111 17.656 14.6875C17.656 14.3639 17.3936 14.1015 17.07 14.1015H7.20852C6.77275 14.1015 6.48974 13.643 6.68443 13.2536L6.84638 12.9297H17.07C17.3316 12.9297 17.5616 12.7563 17.6334 12.5047L19.9771 4.30174C20.0839 3.92811 19.8032 3.55483 19.4138 3.55483ZM16.6281 11.7578H6.92626C6.60701 10.6404 5.7135 7.51317 4.91742 4.72669H18.637L16.6281 11.7578Z" fill="white"/>
</svg>
