<svg width="30" height="28" viewBox="0 0 30 28" fill="none" xmlns="http://www.w3.org/2000/svg">
<path d="M10.6052 24.5467C10.6052 26.0006 11.788 27.1834 13.2419 27.1834C14.6958 27.1834 15.8786 26.0006 15.8786 24.5467C15.8786 23.0928 14.6958 21.91 13.2419 21.91C11.788 21.91 10.6052 23.0928 10.6052 24.5467ZM13.2419 23.6678C13.7265 23.6678 14.1208 24.0621 14.1208 24.5467C14.1208 25.0313 13.7265 25.4256 13.2419 25.4256C12.7573 25.4256 12.363 25.0313 12.363 24.5467C12.363 24.0621 12.7573 23.6678 13.2419 23.6678Z" fill="#3F5D65"/>
<path d="M19.4529 24.5467C19.4529 26.0006 20.6357 27.1834 22.0896 27.1834C23.5434 27.1834 24.7262 26.0006 24.7262 24.5467C24.7262 23.0928 23.5434 21.91 22.0896 21.91C20.6357 21.91 19.4529 23.0928 19.4529 24.5467ZM22.0896 23.6678C22.5742 23.6678 22.9685 24.0621 22.9685 24.5467C22.9685 25.0313 22.5742 25.4256 22.0896 25.4256C21.6049 25.4256 21.2107 25.0313 21.2107 24.5467C21.2107 24.0621 21.6049 23.6678 22.0896 23.6678Z" fill="#3F5D65"/>
<path d="M29.1206 4.33222H6.87394C6.573 3.27878 6.29258 2.29723 6.0517 1.45414C5.94395 1.0768 5.59901 0.81665 5.20662 0.81665H0.878892C0.393509 0.81665 0 1.21016 0 1.69554C0 2.18093 0.393509 2.57444 0.878892 2.57444H4.54364C5.52648 6.01477 7.82414 14.0568 8.7874 17.4283L8.45442 18.0942C7.57699 19.8492 8.85484 21.9101 10.8128 21.9101H25.6051C26.0905 21.9101 26.484 21.5166 26.484 21.0312C26.484 20.5458 26.0905 20.1523 25.6051 20.1523H10.8128C10.1591 20.1523 9.73461 19.4645 10.0266 18.8804L10.2696 18.3945H25.6051C25.9975 18.3945 26.3423 18.1344 26.4502 17.7571L29.9657 5.45257C30.1259 4.89213 29.7048 4.33222 29.1206 4.33222ZM24.9422 16.6367H10.3894C9.91051 14.9606 8.57026 10.2697 7.37613 6.09001H27.9555L24.9422 16.6367Z" fill="#3F5D65"/>
</svg>
