<svg width="20" height="21" viewBox="0 0 20 21" fill="none" xmlns="http://www.w3.org/2000/svg">
<path d="M19.8996 8.63744C19.5392 6.01089 18.1502 3.63508 16.0382 2.03266C13.9261 0.430232 11.264 -0.267549 8.63744 0.0928188C6.0109 0.453187 3.63509 1.84219 2.03266 3.95425C0.430232 6.06631 -0.267549 8.72843 0.0928188 11.355C0.389715 13.5289 1.38872 15.5463 2.9378 17.1001C4.48687 18.654 6.50119 19.6592 8.67419 19.9628C9.11883 20.021 9.56679 20.0503 10.0152 20.0505C11.827 20.0534 13.6049 19.559 15.155 18.6211C15.2638 18.5556 15.3586 18.4692 15.4341 18.3671C15.5095 18.2649 15.5641 18.1488 15.5947 18.0256C15.6253 17.9023 15.6313 17.7742 15.6124 17.6486C15.5935 17.523 15.55 17.4024 15.4845 17.2936C15.4189 17.1848 15.3326 17.09 15.2304 17.0145C15.1283 16.9391 15.0122 16.8845 14.889 16.8539C14.64 16.7921 14.3767 16.8318 14.157 16.9641C13.0536 17.6264 11.8077 18.0148 10.5235 18.0969C9.23923 18.179 7.95401 17.9523 6.77532 17.4359C5.59662 16.9195 4.55873 16.1283 3.74846 15.1286C2.93818 14.1289 2.3791 12.9497 2.11796 11.6896C1.85683 10.4295 1.90124 9.12519 2.24748 7.88578C2.59373 6.64638 3.23173 5.50791 4.10813 4.56561C4.98453 3.62331 6.07384 2.90458 7.28493 2.46954C8.49602 2.0345 9.79368 1.8958 11.0694 2.06505C12.2543 2.22259 13.3893 2.64174 14.3922 3.29212C15.3951 3.94251 16.2408 4.80784 16.8679 5.82542C17.4951 6.843 17.888 7.98735 18.0183 9.17556C18.1486 10.3638 18.0129 11.5661 17.6211 12.6954C17.5195 12.9669 17.3358 13.2001 17.0956 13.3625C16.8554 13.525 16.5706 13.6086 16.2807 13.6019C15.8987 13.6014 15.5325 13.4494 15.2624 13.1792C14.9922 12.9091 14.8403 12.5429 14.8398 12.1609V6.18746C14.8398 5.93097 14.7379 5.68498 14.5565 5.50362C14.3751 5.32225 14.1291 5.22036 13.8727 5.22036C13.6162 5.22036 13.3702 5.32225 13.1888 5.50362C13.0074 5.68498 12.9056 5.93097 12.9056 6.18746V6.19649C12.1724 5.64314 11.2968 5.31006 10.3813 5.23622C9.46569 5.16238 8.54804 5.35085 7.73569 5.77955C6.92334 6.20826 6.2499 6.85947 5.79418 7.65698C5.33846 8.45449 5.11931 9.36531 5.16239 10.2828C5.20547 11.2003 5.50898 12.0866 6.03742 12.8379C6.56586 13.5892 7.29735 14.1745 8.14629 14.5252C8.99524 14.8759 9.92651 14.9776 10.8311 14.8183C11.7357 14.659 12.5763 14.2453 13.2544 13.6257C13.5283 14.1964 13.9575 14.6782 14.4928 15.0161C15.0281 15.354 15.6477 15.5342 16.2807 15.5361C16.9727 15.5427 17.6495 15.3337 18.2173 14.9381C18.7851 14.5425 19.2155 13.9799 19.4489 13.3285C19.9701 11.8229 20.1246 10.2147 19.8996 8.63744ZM10.0043 12.9571C9.43045 12.9571 8.86951 12.787 8.3924 12.4682C7.91528 12.1494 7.54342 11.6963 7.32383 11.1661C7.10423 10.636 7.04678 10.0526 7.15873 9.48983C7.27067 8.92704 7.54699 8.41008 7.95275 8.00432C8.3585 7.59857 8.87546 7.32225 9.43825 7.2103C10.001 7.09836 10.5844 7.15581 11.1145 7.3754C11.6447 7.59499 12.0978 7.96686 12.4166 8.44397C12.7354 8.92109 12.9056 9.48202 12.9056 10.0558C12.9047 10.8251 12.5988 11.5625 12.0548 12.1064C11.5109 12.6503 10.7735 12.9563 10.0043 12.9571Z" fill="#EE5C5D"/>
</svg>
