<svg width="16" height="16" viewBox="0 0 16 16" fill="none" xmlns="http://www.w3.org/2000/svg">
<path d="M10.6843 1.83059C8.24352 -0.610195 4.27097 -0.610195 1.83019 1.83059C-0.610063 4.2719 -0.610063 8.24392 1.83019 10.6852C4.00377 12.8583 7.38901 13.0911 9.82821 11.3942C9.87953 11.6371 9.99699 11.8688 10.1859 12.0577L13.7404 15.6123C14.2584 16.1292 15.0955 16.1292 15.6108 15.6123C16.1283 15.0948 16.1283 14.2578 15.6108 13.7419L12.0563 10.1863C11.8685 9.99898 11.6362 9.88098 11.3933 9.82966C13.0912 7.38994 12.8584 4.00523 10.6843 1.83059ZM9.56206 9.56299C7.73981 11.3852 4.77415 11.3852 2.95243 9.56299C1.13124 7.74074 1.13124 4.77561 2.95243 2.95336C4.77415 1.13163 7.73981 1.13163 9.56206 2.95336C11.3843 4.77561 11.3843 7.74074 9.56206 9.56299Z" fill="#3D5E65"/>
</svg>
