<svg width="20" height="9" viewBox="0 0 20 9" fill="none" xmlns="http://www.w3.org/2000/svg">
<path d="M1.43802 8.90766C1.49901 8.90061 5.74953 8.211 6.29972 7.40521C6.56611 7.02431 6.53042 6.61851 6.45988 5.80525C6.44827 5.67413 6.42088 5.35962 6.41092 5.12643C6.72215 4.96829 7.04426 4.83254 7.3748 4.72021C9.07412 4.13372 10.921 4.13372 12.6203 4.72022C12.9509 4.83243 13.273 4.96818 13.5842 5.12643C13.5742 5.36045 13.5468 5.67496 13.5352 5.8094C13.4647 6.61851 13.4286 7.02472 13.6958 7.40646C14.2506 8.19606 18.5168 8.90393 18.5579 8.90766C18.754 8.94226 18.9553 8.93284 19.1472 8.8801C19.3392 8.82736 19.517 8.7326 19.6679 8.60269C20.389 7.88155 19.777 3.15179 19.3272 2.70201C19.3011 2.67587 16.6061 0.0564302 9.99631 0C3.39357 0.0568449 0.699031 2.67587 0.672891 2.70201C0.222694 3.1522 -0.388908 7.88155 0.332236 8.60269C0.482475 8.73222 0.659605 8.82678 0.850835 8.87952C1.04206 8.93226 1.24262 8.94187 1.43802 8.90766Z" fill="#EE5C5D"/>
</svg>
